<svg version="1.1" id="Layer_1" xmlns="http://www.w3.org/2000/svg" xmlns:xlink="http://www.w3.org/1999/xlink" x="0px" y="0px"
	 width="100%" viewBox="0 0 512 512" enable-background="new 0 0 512 512" xml:space="preserve">
<path fill="#FFFFFF" opacity="1.000000" stroke="none" 
	d="
M1.000000,393.000000 
	C1.000000,302.645782 1.000000,212.291550 1.468657,121.468658 
	C11.527262,121.000000 21.117208,121.000000 31.213692,121.000000 
	C31.213692,90.692780 31.213692,60.875015 31.213692,30.727310 
	C61.425732,30.727310 91.123787,30.727310 121.000000,30.727310 
	C121.000000,20.593544 121.000000,10.796772 121.000000,1.000000 
	C211.354233,1.000000 301.708466,1.000000 392.531342,1.468657 
	C393.000000,11.527249 393.000000,21.117186 393.000000,31.213661 
	C423.307190,31.213661 453.124969,31.213661 483.272675,31.213661 
	C483.272675,61.425709 483.272675,91.123772 483.272675,121.000000 
	C493.406586,121.000000 503.203308,121.000000 513.000000,121.000000 
	C513.000000,211.354233 513.000000,301.708466 512.531372,392.531342 
	C502.472748,393.000000 492.882782,393.000000 482.786316,393.000000 
	C482.786316,423.307220 482.786316,453.124969 482.786316,483.272705 
	C452.574280,483.272705 422.876221,483.272705 393.000000,483.272705 
	C393.000000,493.406616 393.000000,503.203308 393.000000,513.000000 
	C302.645782,513.000000 212.291550,513.000000 121.468658,512.531372 
	C121.000000,502.472748 121.000000,492.882782 121.000000,482.786316 
	C90.692802,482.786316 60.875034,482.786316 30.727324,482.786316 
	C30.727324,452.574280 30.727324,422.876221 30.727324,393.000000 
	C20.593393,393.000000 10.796697,393.000000 1.000000,393.000000 
M212.869385,300.995117 
	C222.565216,300.995117 232.261032,300.995117 241.931549,300.995117 
	C241.931549,290.484467 241.931549,280.702454 242.874908,270.994385 
	C282.608551,270.973236 322.342194,270.952087 362.005341,271.874603 
	C362.005341,281.468689 362.005341,291.062744 362.005341,301.158173 
	C331.746643,301.158173 301.933563,301.158173 272.075867,301.158173 
	C272.075867,311.466766 272.075867,321.267883 271.130554,331.004883 
	C261.545502,331.004883 251.960419,331.004883 242.349426,331.004883 
	C242.349426,341.248199 242.349426,351.080597 242.349426,360.930939 
	C252.491150,360.930939 262.283478,360.930939 272.005341,361.874603 
	C272.005341,371.478424 272.005341,381.082245 272.005341,391.073853 
	C282.205811,391.073853 291.945648,391.073853 302.059204,391.073853 
	C302.059204,411.194366 302.059204,430.925476 302.059204,450.636047 
	C352.275787,450.636047 402.106018,450.636047 451.671021,450.636047 
	C451.671021,400.558868 451.671021,350.845947 451.671021,300.750122 
	C431.612518,300.750122 411.881256,300.750122 391.924133,300.750122 
	C391.924133,290.554077 391.924133,280.742523 392.869446,270.995117 
	C412.448273,270.995117 432.027069,270.995117 451.643036,270.995117 
	C451.643036,260.756653 451.643036,250.914291 451.643036,241.069046 
	C431.498779,241.069046 411.711456,241.069046 391.994659,240.125397 
	C391.994659,230.520554 391.994659,220.915726 391.994659,210.928177 
	C412.206177,210.928177 431.939362,210.928177 451.797302,210.928177 
	C451.797302,160.822342 451.797302,111.105125 451.797302,61.351913 
	C401.758606,61.351913 351.923431,61.351913 302.324463,61.351913 
	C302.324463,111.422043 302.324463,161.139923 302.324463,211.243866 
	C322.380371,211.243866 342.113708,211.243866 362.075867,211.243866 
	C362.075867,221.444031 362.075867,231.256516 361.130585,241.004898 
	C331.438812,241.004898 301.747070,241.004898 271.675842,241.004898 
	C271.675842,230.531860 271.675842,220.798996 271.675842,211.342133 
	C261.557495,211.342133 251.826370,211.342133 242.073425,211.342133 
	C242.073425,231.476974 242.073425,251.269775 241.128525,271.004486 
	C231.393723,271.026001 221.658920,271.047516 211.994644,270.125366 
	C211.994644,260.523560 211.994644,250.921738 211.994644,241.358734 
	C161.712479,241.358734 111.893326,241.358734 62.352097,241.358734 
	C62.352097,251.454620 62.352097,261.190186 62.352097,271.289551 
	C82.429848,271.289551 102.156593,271.289551 121.672424,271.289551 
	C121.672424,281.404877 121.672424,291.139221 121.672424,301.251770 
	C111.610573,301.251770 101.872833,301.251770 92.075928,301.251770 
	C92.075928,311.450684 92.075928,321.259827 91.130630,331.004883 
	C81.539177,331.004883 71.947731,331.004883 62.340004,331.004883 
	C62.340004,351.251892 62.340004,371.070984 62.340004,390.931000 
	C72.478516,390.931000 82.277214,390.931000 92.005379,391.874664 
	C92.027901,401.603821 92.050430,411.332947 91.128189,421.004456 
	C81.537682,421.004456 71.947166,421.004456 62.367493,421.004456 
	C62.367493,431.272339 62.367493,441.110107 62.367493,450.657471 
	C72.459564,450.657471 82.182861,450.657471 91.931099,450.657471 
	C91.931099,440.516663 91.931099,430.718292 92.874466,420.994354 
	C102.477646,420.994354 112.080826,420.994354 122.069901,420.994354 
	C122.069901,431.202240 122.069901,440.940979 122.069901,450.634155 
	C172.288620,450.634155 222.114380,450.634155 271.638855,450.634155 
	C271.638855,440.529572 271.638855,430.792236 271.638855,420.679138 
	C261.540314,420.679138 251.801987,420.679138 241.688538,420.679138 
	C241.688538,410.550018 241.688538,400.811615 241.688538,391.347046 
	C231.558105,391.347046 221.821609,391.347046 211.707336,391.347046 
	C211.707336,401.430817 211.707336,411.169708 211.707336,420.671600 
	C191.586395,420.671600 171.858521,420.671600 152.323700,420.671600 
	C152.323700,410.605591 152.323700,400.870178 152.323700,390.754089 
	C162.382782,390.754089 172.121735,390.754089 181.924088,390.754089 
	C181.924088,380.551910 181.924088,370.741486 182.869385,360.995117 
	C192.455078,360.995117 202.040787,360.995117 211.924088,360.995117 
	C211.924088,340.702271 211.924088,320.816650 212.869385,300.995117 
M241.125214,91.005630 
	C231.520523,91.005630 221.915833,91.005630 211.922150,91.005630 
	C211.922150,80.790771 211.922150,71.050323 211.922150,61.208309 
	C161.810318,61.208309 112.093468,61.208309 62.356972,61.208309 
	C62.356972,111.252327 62.356972,161.087189 62.356972,210.671036 
	C112.431808,210.671036 162.149353,210.671036 212.246185,210.671036 
	C212.246185,180.615555 212.246185,150.887878 212.246185,120.926598 
	C222.438934,120.926598 232.250778,120.926598 242.004501,121.871490 
	C242.004501,141.454208 242.004501,161.036942 242.004501,180.632751 
	C252.259033,180.632751 262.103149,180.632751 271.667389,180.632751 
	C271.667389,160.550430 271.667389,140.835968 271.667389,121.068474 
	C261.530151,121.068474 251.725296,121.068474 241.994370,120.125130 
	C241.971817,110.395882 241.949265,100.666641 242.871597,90.995499 
	C252.462097,90.995499 262.052612,90.995499 271.632690,90.995499 
	C271.632690,80.727547 271.632690,70.889900 271.632690,61.342377 
	C261.540802,61.342377 251.817490,61.342377 242.068604,61.342377 
	C242.068604,71.482941 242.068604,81.281242 241.125214,91.005630 
z"/>
<path fill="#000000" opacity="1.000000" stroke="none" 
	d="
M120.531342,1.000000 
	C121.000000,10.796772 121.000000,20.593544 121.000000,30.727310 
	C91.123787,30.727310 61.425732,30.727310 31.213692,30.727310 
	C31.213692,60.875015 31.213692,90.692780 31.213692,121.000000 
	C21.117208,121.000000 11.527262,121.000000 1.468657,121.000000 
	C1.000000,81.073029 1.000000,41.146065 1.000000,1.000000 
	C40.687294,1.000000 80.374985,1.000000 120.531342,1.000000 
z"/>
<path fill="#000000" opacity="1.000000" stroke="none" 
	d="
M513.000000,120.531342 
	C503.203308,121.000000 493.406586,121.000000 483.272675,121.000000 
	C483.272675,91.123772 483.272675,61.425709 483.272675,31.213661 
	C453.124969,31.213661 423.307190,31.213661 393.000000,31.213661 
	C393.000000,21.117186 393.000000,11.527249 393.000000,1.468657 
	C432.926971,1.000000 472.853912,1.000000 513.000000,1.000000 
	C513.000000,40.687294 513.000000,80.374985 513.000000,120.531342 
z"/>
<path fill="#000000" opacity="1.000000" stroke="none" 
	d="
M393.468658,513.000000 
	C393.000000,503.203308 393.000000,493.406616 393.000000,483.272705 
	C422.876221,483.272705 452.574280,483.272705 482.786316,483.272705 
	C482.786316,453.124969 482.786316,423.307220 482.786316,393.000000 
	C492.882782,393.000000 502.472748,393.000000 512.531372,393.000000 
	C513.000000,432.926971 513.000000,472.853912 513.000000,513.000000 
	C473.312714,513.000000 433.625000,513.000000 393.468658,513.000000 
z"/>
<path fill="#000000" opacity="1.000000" stroke="none" 
	d="
M1.000000,393.468658 
	C10.796697,393.000000 20.593393,393.000000 30.727324,393.000000 
	C30.727324,422.876221 30.727324,452.574280 30.727324,482.786316 
	C60.875034,482.786316 90.692802,482.786316 121.000000,482.786316 
	C121.000000,492.882782 121.000000,502.472748 121.000000,512.531372 
	C81.073036,513.000000 41.146069,513.000000 1.000000,513.000000 
	C1.000000,473.312714 1.000000,433.625000 1.000000,393.468658 
z"/>
<path fill="#000000" opacity="1.000000" stroke="none" 
	d="
M92.075928,331.068970 
	C92.075928,321.259827 92.075928,311.450684 92.075928,301.251770 
	C101.872833,301.251770 111.610573,301.251770 121.672424,301.251770 
	C121.672424,291.139221 121.672424,281.404877 121.672424,271.289551 
	C102.156593,271.289551 82.429848,271.289551 62.352097,271.289551 
	C62.352097,261.190186 62.352097,251.454620 62.352097,241.358734 
	C111.893326,241.358734 161.712479,241.358734 211.994644,241.358734 
	C211.994644,250.921738 211.994644,260.523560 211.996094,270.562744 
	C211.997559,271.000122 212.069946,270.930054 211.597870,270.962585 
	C191.543259,270.995087 171.960709,270.995087 152.329193,270.995087 
	C152.329193,301.231476 152.329193,331.049194 152.329193,361.069946 
	C162.461868,361.069946 172.265900,361.069946 182.033722,361.034973 
	C181.997513,360.999969 181.924088,360.931030 181.924088,360.931030 
	C181.924088,370.741486 181.924088,380.551910 181.924088,390.754089 
	C172.121735,390.754089 162.382782,390.754089 152.323700,390.754089 
	C152.323700,400.870178 152.323700,410.605591 152.323700,420.671600 
	C171.858521,420.671600 191.586395,420.671600 211.707336,420.671600 
	C211.707336,411.169708 211.707336,401.430817 211.707336,391.347046 
	C221.821609,391.347046 231.558105,391.347046 241.688538,391.347046 
	C241.688538,400.811615 241.688538,410.550018 241.688538,420.679138 
	C251.801987,420.679138 261.540314,420.679138 271.638855,420.679138 
	C271.638855,430.792236 271.638855,440.529572 271.638855,450.634155 
	C222.114380,450.634155 172.288620,450.634155 122.069901,450.634155 
	C122.069901,440.940979 122.069901,431.202240 122.069901,420.994354 
	C112.080826,420.994354 102.477646,420.994354 92.437119,420.993835 
	C91.999763,420.993286 92.072952,421.062103 92.072952,421.062103 
	C92.050430,411.332947 92.027901,401.603821 92.003922,391.437317 
	C92.002464,390.999939 91.930061,391.069946 92.402130,391.037445 
	C102.464539,391.004944 112.054871,391.004944 121.661148,391.004944 
	C121.661148,370.747894 121.661148,350.930023 121.661148,330.930054 
	C111.525162,330.930054 101.727608,330.930054 91.966278,330.965027 
	C92.002487,331.000031 92.075928,331.068970 92.075928,331.068970 
z"/>
<path fill="#000000" opacity="1.000000" stroke="none" 
	d="
M391.924133,270.930969 
	C391.924133,280.742523 391.924133,290.554077 391.924133,300.750122 
	C411.881256,300.750122 431.612518,300.750122 451.671021,300.750122 
	C451.671021,350.845947 451.671021,400.558868 451.671021,450.636047 
	C402.106018,450.636047 352.275787,450.636047 302.059204,450.636047 
	C302.059204,430.925476 302.059204,411.194366 302.059204,391.073853 
	C291.945648,391.073853 282.205811,391.073853 272.005341,391.073853 
	C272.005341,381.082245 272.005341,371.478424 272.003876,361.437256 
	C272.002411,360.999878 271.930054,361.069946 272.402161,361.037415 
	C282.458008,361.004913 292.041809,361.004913 301.651367,361.004913 
	C301.651367,350.751404 301.651367,340.920105 301.651367,330.930054 
	C291.512115,330.930054 281.721069,330.930054 271.966248,330.965088 
	C272.002441,331.000092 272.075867,331.069031 272.075867,331.069031 
	C272.075867,321.267883 272.075867,311.466766 272.075867,301.158173 
	C301.933563,301.158173 331.746643,301.158173 362.005341,301.158173 
	C362.005341,291.062744 362.005341,281.468689 362.003845,271.437225 
	C362.002380,270.999847 361.930054,271.069946 362.402191,271.037445 
	C372.606201,271.026611 382.338074,271.048279 392.033752,271.034912 
	C391.997559,270.999908 391.924133,270.930969 391.924133,270.930969 
M332.000000,342.517090 
	C332.000000,368.609406 332.000000,394.701721 332.000000,420.707886 
	C362.320465,420.707886 392.056824,420.707886 421.707367,420.707886 
	C421.707367,390.678497 421.707367,360.942139 421.707367,331.293152 
	C391.677490,331.293152 361.941132,331.293152 332.000000,331.293152 
	C332.000000,334.897430 332.000000,338.210266 332.000000,342.517090 
z"/>
<path fill="#000000" opacity="1.000000" stroke="none" 
	d="
M242.062607,120.926598 
	C232.250778,120.926598 222.438934,120.926598 212.246185,120.926598 
	C212.246185,150.887878 212.246185,180.615555 212.246185,210.671036 
	C162.149353,210.671036 112.431808,210.671036 62.356972,210.671036 
	C62.356972,161.087189 62.356972,111.252327 62.356972,61.208309 
	C112.093468,61.208309 161.810318,61.208309 211.922150,61.208309 
	C211.922150,71.050323 211.922150,80.790771 211.922150,91.005630 
	C221.915833,91.005630 231.520523,91.005630 241.562561,91.005920 
	C241.999924,91.006210 241.926727,90.937393 241.926727,90.937393 
	C241.949265,100.666641 241.971817,110.395882 241.994080,120.562469 
	C241.993790,120.999802 242.062607,120.926598 242.062607,120.926598 
M182.000000,134.500000 
	C182.000000,120.070763 182.000000,105.641533 182.000000,91.286804 
	C151.689529,91.286804 121.953575,91.286804 92.286797,91.286804 
	C92.286797,121.310432 92.286797,151.046387 92.286797,180.713211 
	C122.310417,180.713211 152.046371,180.713211 182.000000,180.713211 
	C182.000000,165.451599 182.000000,150.475800 182.000000,134.500000 
z"/>
<path fill="#000000" opacity="1.000000" stroke="none" 
	d="
M362.075867,241.068985 
	C362.075867,231.256516 362.075867,221.444031 362.075867,211.243866 
	C342.113708,211.243866 322.380371,211.243866 302.324463,211.243866 
	C302.324463,161.139923 302.324463,111.422043 302.324463,61.351913 
	C351.923431,61.351913 401.758606,61.351913 451.797302,61.351913 
	C451.797302,111.105125 451.797302,160.822342 451.797302,210.928177 
	C431.939362,210.928177 412.206177,210.928177 391.994659,210.928177 
	C391.994659,220.915726 391.994659,230.520554 391.996155,240.562744 
	C391.997620,241.000107 392.069946,240.930054 391.597839,240.962555 
	C381.393860,240.973373 371.661957,240.951706 361.966248,240.965057 
	C362.002441,241.000061 362.075867,241.068985 362.075867,241.068985 
M381.500000,181.000000 
	C394.929504,181.000000 408.359039,181.000000 421.713074,181.000000 
	C421.713074,150.689255 421.713074,120.953308 421.713074,91.286942 
	C391.689270,91.286942 361.953308,91.286942 332.286926,91.286942 
	C332.286926,121.310715 332.286926,151.046677 332.286926,181.000000 
	C348.548615,181.000000 364.524292,181.000000 381.500000,181.000000 
z"/>
<path fill="#000000" opacity="1.000000" stroke="none" 
	d="
M242.073425,271.062561 
	C242.073425,251.269775 242.073425,231.476974 242.073425,211.342133 
	C251.826370,211.342133 261.557495,211.342133 271.675842,211.342133 
	C271.675842,220.798996 271.675842,230.531860 271.675842,241.004898 
	C301.747070,241.004898 331.438812,241.004898 361.603210,241.036942 
	C362.075867,241.068985 362.002441,241.000061 361.998749,241.437180 
	C361.973389,251.606186 361.951721,261.338074 361.930054,271.069946 
	C361.930054,271.069946 362.002380,270.999847 362.039124,270.965393 
	C322.342194,270.952087 282.608551,270.973236 242.437561,270.994080 
	C242.000214,270.993744 242.073425,271.062561 242.073425,271.062561 
z"/>
<path fill="#000000" opacity="1.000000" stroke="none" 
	d="
M391.960876,241.034576 
	C411.711456,241.069046 431.498779,241.069046 451.643036,241.069046 
	C451.643036,250.914291 451.643036,260.756653 451.643036,270.995117 
	C432.027069,270.995117 412.448273,270.995117 392.396790,270.963043 
	C391.924133,270.930969 391.997559,270.999908 392.001251,270.562805 
	C392.026611,260.393799 392.048279,250.661926 392.069946,240.930054 
	C392.069946,240.930054 391.997620,241.000107 391.960876,241.034576 
z"/>
<path fill="#000000" opacity="1.000000" stroke="none" 
	d="
M211.924088,300.931030 
	C211.924088,320.816650 211.924088,340.702271 211.924088,360.995117 
	C202.040787,360.995117 192.455078,360.995117 182.396729,360.963074 
	C181.924088,360.931030 181.997513,360.999969 182.001221,360.562805 
	C182.004944,340.447601 182.004944,320.769562 182.004944,301.069946 
	C192.485870,301.069946 202.277908,301.069946 212.033722,301.034973 
	C211.997513,300.999969 211.924088,300.931030 211.924088,300.931030 
z"/>
<path fill="#000000" opacity="1.000000" stroke="none" 
	d="
M92.039185,390.965454 
	C82.277214,390.931000 72.478516,390.931000 62.340004,390.931000 
	C62.340004,371.070984 62.340004,351.251892 62.340004,331.004883 
	C71.947731,331.004883 81.539177,331.004883 91.603279,331.036926 
	C92.075928,331.068970 92.002487,331.000031 91.998764,331.437195 
	C91.973389,351.606201 91.951721,371.338074 91.930061,391.069946 
	C91.930061,391.069946 92.002464,390.999939 92.039185,390.965454 
z"/>
<path fill="#000000" opacity="1.000000" stroke="none" 
	d="
M241.957123,121.034134 
	C251.725296,121.068474 261.530151,121.068474 271.667389,121.068474 
	C271.667389,140.835968 271.667389,160.550430 271.667389,180.632751 
	C262.103149,180.632751 252.259033,180.632751 242.004501,180.632751 
	C242.004501,161.036942 242.004501,141.454208 242.033554,121.399048 
	C242.062607,120.926598 241.993790,120.999802 241.957123,121.034134 
z"/>
<path fill="#000000" opacity="1.000000" stroke="none" 
	d="
M241.965881,270.957092 
	C241.931549,280.702454 241.931549,290.484467 241.931549,300.995117 
	C232.261032,300.995117 222.565216,300.995117 212.396729,300.963074 
	C211.924088,300.931030 211.997513,300.999969 212.001221,300.562805 
	C212.026611,290.393799 212.048279,280.661926 212.069946,270.930054 
	C212.069946,270.930054 211.997559,271.000122 211.960846,271.034576 
	C221.658920,271.047516 231.393723,271.026001 241.600983,271.033508 
	C242.073425,271.062561 242.000214,270.993744 241.965881,270.957092 
z"/>
<path fill="#000000" opacity="1.000000" stroke="none" 
	d="
M272.039124,360.965393 
	C262.283478,360.930939 252.491150,360.930939 242.349426,360.930939 
	C242.349426,351.080597 242.349426,341.248199 242.349426,331.004883 
	C251.960419,331.004883 261.545502,331.004883 271.603210,331.036957 
	C272.075867,331.069031 272.002441,331.000092 271.998749,331.437195 
	C271.973389,341.606201 271.951721,351.338074 271.930054,361.069946 
	C271.930054,361.069946 272.002411,360.999878 272.039124,360.965393 
z"/>
<path fill="#000000" opacity="1.000000" stroke="none" 
	d="
M242.034271,91.042877 
	C242.068604,81.281242 242.068604,71.482941 242.068604,61.342377 
	C251.817490,61.342377 261.540802,61.342377 271.632690,61.342377 
	C271.632690,70.889900 271.632690,80.727547 271.632690,90.995499 
	C262.052612,90.995499 252.462097,90.995499 242.399170,90.966446 
	C241.926727,90.937393 241.999924,91.006210 242.034271,91.042877 
z"/>
<path fill="#000000" opacity="1.000000" stroke="none" 
	d="
M91.965431,420.956604 
	C91.931099,430.718292 91.931099,440.516663 91.931099,450.657471 
	C82.182861,450.657471 72.459564,450.657471 62.367493,450.657471 
	C62.367493,441.110107 62.367493,431.272339 62.367493,421.004456 
	C71.947166,421.004456 81.537682,421.004456 91.600571,421.033264 
	C92.072952,421.062103 91.999763,420.993286 91.965431,420.956604 
z"/>
<path fill="#FFFFFF" opacity="1.000000" stroke="none" 
	d="
M211.597870,270.962585 
	C212.048279,280.661926 212.026611,290.393799 212.037445,300.597809 
	C202.277908,301.069946 192.485870,301.069946 182.004944,301.069946 
	C182.004944,320.769562 182.004944,340.447601 182.037445,360.597809 
	C172.265900,361.069946 162.461868,361.069946 152.329193,361.069946 
	C152.329193,331.049194 152.329193,301.231476 152.329193,270.995087 
	C171.960709,270.995087 191.543259,270.995087 211.597870,270.962585 
z"/>
<path fill="#FFFFFF" opacity="1.000000" stroke="none" 
	d="
M92.402130,391.037445 
	C91.951721,371.338074 91.973389,351.606201 91.962555,331.402191 
	C101.727608,330.930054 111.525162,330.930054 121.661148,330.930054 
	C121.661148,350.930023 121.661148,370.747894 121.661148,391.004944 
	C112.054871,391.004944 102.464539,391.004944 92.402130,391.037445 
z"/>
<path fill="#FFFFFF" opacity="1.000000" stroke="none" 
	d="
M332.000000,342.020081 
	C332.000000,338.210266 332.000000,334.897430 332.000000,331.293152 
	C361.941132,331.293152 391.677490,331.293152 421.707367,331.293152 
	C421.707367,360.942139 421.707367,390.678497 421.707367,420.707886 
	C392.056824,420.707886 362.320465,420.707886 332.000000,420.707886 
	C332.000000,394.701721 332.000000,368.609406 332.000000,342.020081 
M376.501434,391.000000 
	C381.599213,391.000000 386.696991,391.000000 391.712280,391.000000 
	C391.712280,380.685608 391.712280,370.948395 391.712280,361.288116 
	C381.684845,361.288116 371.947601,361.288116 362.288513,361.288116 
	C362.288513,371.315948 362.288513,381.053192 362.288513,391.000000 
	C366.885529,391.000000 371.195801,391.000000 376.501434,391.000000 
z"/>
<path fill="#FFFFFF" opacity="1.000000" stroke="none" 
	d="
M391.597839,240.962555 
	C392.048279,250.661926 392.026611,260.393799 392.037445,270.597809 
	C382.338074,271.048279 372.606201,271.026611 362.402191,271.037445 
	C361.951721,261.338074 361.973389,251.606186 361.962555,241.402161 
	C371.661957,240.951706 381.393860,240.973373 391.597839,240.962555 
z"/>
<path fill="#FFFFFF" opacity="1.000000" stroke="none" 
	d="
M272.402161,361.037415 
	C271.951721,351.338074 271.973389,341.606201 271.962555,331.402191 
	C281.721069,330.930054 291.512115,330.930054 301.651367,330.930054 
	C301.651367,340.920105 301.651367,350.751404 301.651367,361.004913 
	C292.041809,361.004913 282.458008,361.004913 272.402161,361.037415 
z"/>
<path fill="#FFFFFF" opacity="1.000000" stroke="none" 
	d="
M182.000000,135.000000 
	C182.000000,150.475800 182.000000,165.451599 182.000000,180.713211 
	C152.046371,180.713211 122.310417,180.713211 92.286797,180.713211 
	C92.286797,151.046387 92.286797,121.310432 92.286797,91.286804 
	C121.953575,91.286804 151.689529,91.286804 182.000000,91.286804 
	C182.000000,105.641533 182.000000,120.070763 182.000000,135.000000 
M144.439575,121.000000 
	C137.013336,121.000000 129.587097,121.000000 122.309479,121.000000 
	C122.309479,131.357330 122.309479,141.096024 122.309479,150.689087 
	C132.360275,150.689087 142.098862,150.689087 151.687378,150.689087 
	C151.687378,140.637177 151.687378,130.898712 151.687378,121.000000 
	C149.391586,121.000000 147.407425,121.000000 144.439575,121.000000 
z"/>
<path fill="#FFFFFF" opacity="1.000000" stroke="none" 
	d="
M381.000000,181.000000 
	C364.524292,181.000000 348.548615,181.000000 332.286926,181.000000 
	C332.286926,151.046677 332.286926,121.310715 332.286926,91.286942 
	C361.953308,91.286942 391.689270,91.286942 421.713074,91.286942 
	C421.713074,120.953308 421.713074,150.689255 421.713074,181.000000 
	C408.359039,181.000000 394.929504,181.000000 381.000000,181.000000 
M375.506287,151.000000 
	C380.936035,151.000000 386.365814,151.000000 391.710846,151.000000 
	C391.710846,140.682587 391.710846,130.945404 391.710846,121.289429 
	C381.682037,121.289429 371.944824,121.289429 362.289703,121.289429 
	C362.289703,131.318695 362.289703,141.055847 362.289703,151.000000 
	C366.555023,151.000000 370.532379,151.000000 375.506287,151.000000 
z"/>
<path fill="#000000" opacity="1.000000" stroke="none" 
	d="
M376.003784,391.000000 
	C371.195801,391.000000 366.885529,391.000000 362.288513,391.000000 
	C362.288513,381.053192 362.288513,371.315948 362.288513,361.288116 
	C371.947601,361.288116 381.684845,361.288116 391.712280,361.288116 
	C391.712280,370.948395 391.712280,380.685608 391.712280,391.000000 
	C386.696991,391.000000 381.599213,391.000000 376.003784,391.000000 
z"/>
<path fill="#000000" opacity="1.000000" stroke="none" 
	d="
M144.931427,121.000000 
	C147.407425,121.000000 149.391586,121.000000 151.687378,121.000000 
	C151.687378,130.898712 151.687378,140.637177 151.687378,150.689087 
	C142.098862,150.689087 132.360275,150.689087 122.309479,150.689087 
	C122.309479,141.096024 122.309479,131.357330 122.309479,121.000000 
	C129.587097,121.000000 137.013336,121.000000 144.931427,121.000000 
z"/>
<path fill="#000000" opacity="1.000000" stroke="none" 
	d="
M375.008026,151.000000 
	C370.532379,151.000000 366.555023,151.000000 362.289703,151.000000 
	C362.289703,141.055847 362.289703,131.318695 362.289703,121.289429 
	C371.944824,121.289429 381.682037,121.289429 391.710846,121.289429 
	C391.710846,130.945404 391.710846,140.682587 391.710846,151.000000 
	C386.365814,151.000000 380.936035,151.000000 375.008026,151.000000 
z"/>
</svg>