<svg width="21" height="23" viewBox="0 0 21 23" fill="none" xmlns="http://www.w3.org/2000/svg">
<path d="M15.8937 1.08977C17.0127 1.29791 18.0432 1.85997 18.8463 2.69946L18.8372 2.71267C19.616 3.52688 20.1471 4.56369 20.3634 5.69263C20.5797 6.82155 20.4716 7.99212 20.0527 9.05699C19.6339 10.1219 18.923 11.0334 18.0095 11.6769C17.0964 12.3202 16.0219 12.6668 14.9209 12.6734C14.8614 12.6733 14.7976 12.6651 14.6957 12.6505C14.6912 12.6498 14.6866 12.6492 14.6819 12.6485C14.5919 12.6356 14.4644 12.6173 14.3316 12.6173H14.1401L13.9919 12.7439L3.8565 21.4L1 18.4145L9.28225 7.82165L9.42384 7.64056L9.40044 7.40797C9.2801 6.2114 9.51868 5.00533 10.0832 3.95674C10.6477 2.90815 11.5102 2.06893 12.5512 1.55528C13.5921 1.04161 14.7602 0.878937 15.8937 1.08977ZM3.56947 20.2855L3.91234 20.6439L4.28821 20.3237L12.7596 13.1084L13.4411 12.5279L12.6357 12.1594C11.3983 11.5932 10.4118 10.5585 9.87445 9.26329L9.52363 8.4177L8.96602 9.1317L2.05149 17.9854L1.74465 18.3783L2.08778 18.7369L3.56947 20.2855ZM15.9283 12.0222C16.5218 11.8989 17.086 11.6656 17.5956 11.3367V11.531L18.5086 10.5937C18.9837 10.1059 19.3613 9.52412 19.6188 8.8822C19.8765 8.24029 20.0092 7.55116 20.0092 6.85506C20.0092 6.15895 19.8765 5.46983 19.6188 4.82791C19.3616 4.18679 18.9847 3.60559 18.5104 3.11818C17.8048 2.38159 16.9063 1.87996 15.9283 1.67666C14.9494 1.4732 13.9347 1.57767 13.0127 1.97688C12.0906 2.37608 11.3025 3.05207 10.7481 3.91938C10.1935 4.78669 9.89761 5.80636 9.89761 6.84945C9.89761 7.89254 10.1935 8.91221 10.7481 9.77952C11.3025 10.6468 12.0906 11.3228 13.0127 11.7221C13.9347 12.1212 14.9494 12.2257 15.9283 12.0222Z" fill="#FCFCFC" stroke="#536079"/>
</svg>
