<svg width="15" height="18" viewBox="0 0 15 18" fill="none" xmlns="http://www.w3.org/2000/svg">
<path d="M4.55469 14.3105C6.2758 14.5047 8.01309 14.5047 9.73426 14.3105C9.72207 14.4785 9.69582 14.6453 9.65569 14.809L9.58471 15.0986C9.36232 16.0058 8.65587 16.7119 7.75395 16.9283C7.35324 17.0245 6.93572 17.0245 6.535 16.9283C5.63308 16.7119 4.92657 16.0058 4.70424 15.0986L4.63326 14.809C4.59313 14.6453 4.56683 14.4785 4.55469 14.3105Z" fill="#536079" fill-opacity="0.12"/>
<path d="M5.55192 2.49264C3.81288 3.05814 2.45523 4.47714 1.97527 6.25427L1.46412 8.14676L1.05947 9.98512C0.934868 10.5514 0.765309 11.1337 0.675892 11.7067C0.660381 11.806 0.652344 11.9078 0.652344 12.0116C0.652344 12.9378 1.29962 13.7358 2.20019 13.9198L2.51851 13.9849C5.57277 14.6091 8.72028 14.6091 11.7746 13.9849L12.0929 13.9198C12.9934 13.7358 13.6408 12.9378 13.6408 12.0116C13.6408 11.9078 13.6327 11.806 13.6172 11.7067C13.5278 11.1337 13.3582 10.5514 13.2336 9.98512L12.829 8.14676L12.324 6.21582C11.8656 4.46333 10.558 3.06395 8.84982 2.49799C7.78289 2.14448 6.6207 2.1451 5.55192 2.49264Z" fill="#536079" fill-opacity="0.12"/>
<path d="M7.14653 1.36133V2.23411M4.55677 14.3073C6.27788 14.5015 8.01517 14.5015 9.73634 14.3073C9.72414 14.4753 9.6979 14.6421 9.65777 14.8058L9.58679 15.0954C9.3644 16.0026 8.65795 16.7087 7.75603 16.9251C7.35531 17.0213 6.93779 17.0213 6.53708 16.9251C5.63516 16.7087 4.92865 16.0026 4.70632 15.0954L4.63534 14.8058C4.59521 14.6421 4.56891 14.4753 4.55677 14.3073ZM1.97527 6.25414C2.45523 4.47701 3.81288 3.058 5.55192 2.4925C6.6207 2.14497 7.78289 2.14435 8.84982 2.49786C10.558 3.06381 11.8656 4.46319 12.324 6.21569L12.829 8.14662L13.2336 9.98499C13.3582 10.5512 13.5278 11.1336 13.6172 11.7065C13.6327 11.8059 13.6408 11.9077 13.6408 12.0114C13.6408 12.9377 12.9934 13.7357 12.0929 13.9197L11.7746 13.9848C8.72028 14.609 5.57277 14.609 2.51851 13.9848L2.20019 13.9197C1.29962 13.7357 0.652344 12.9377 0.652344 12.0114C0.652344 11.9077 0.660381 11.8059 0.675892 11.7065C0.765309 11.1336 0.934868 10.5512 1.05947 9.98499L1.46412 8.14662L1.97527 6.25414Z" stroke="white" stroke-width="1.2" stroke-linecap="round"/>
</svg>
