<svg width="19" height="19" viewBox="0 0 19 19" fill="none" xmlns="http://www.w3.org/2000/svg">
<path d="M18.095 0.904842C17.2437 0.0530175 15.9429 -0.209467 14.4334 0.168883H14.4329L5.7084 2.35101C4.20121 2.72744 2.72595 4.202 2.34978 5.70903L0.168553 14.4343C-0.208894 15.944 0.0523899 17.2443 0.90406 18.096C1.50149 18.6938 2.31891 19 3.27527 19C3.68227 19 4.11505 18.9443 4.56616 18.8319L13.2907 16.6498C14.7977 16.2732 16.273 14.7988 16.6492 13.2916L18.8304 4.56635C19.208 3.05679 18.9467 1.75649 18.095 0.904812L18.095 0.904842ZM17.5524 4.24743L15.3712 12.9727C15.1156 13.9951 13.9946 15.1161 12.9712 15.3719L4.24664 17.554C3.20321 17.8147 2.34815 17.6766 1.83556 17.1644C1.32399 16.6533 1.18577 15.7973 1.44664 14.7534L3.62786 6.0281C3.88342 5.00571 5.00447 3.88451 6.02791 3.62896L14.7532 1.44683C15.7962 1.18774 16.6527 1.32419 17.164 1.83621C17.6754 2.34747 17.8136 3.20355 17.5527 4.24743H17.5524ZM9.49946 5.76742C7.44129 5.76742 5.76648 7.44178 5.76648 9.5004C5.76648 11.559 7.44129 13.2334 9.49946 13.2334C11.5576 13.2334 13.2324 11.559 13.2324 9.5004C13.2324 7.44167 11.5576 5.76742 9.49946 5.76742ZM9.49946 11.9157C8.16739 11.9157 7.08398 10.8324 7.08398 9.50018C7.08398 8.1681 8.16724 7.0847 9.49946 7.0847C10.8315 7.0847 11.9149 8.16795 11.9149 9.50018C11.9149 10.8324 10.8315 11.9157 9.49946 11.9157Z" fill="white"/>
</svg>
