<svg width="24" height="17" viewBox="0 0 24 17" fill="none" xmlns="http://www.w3.org/2000/svg">
<path d="M15.5998 13.925C15.9181 13.925 16.2233 14.0475 16.4483 14.2655C16.6734 14.4835 16.7998 14.7792 16.7998 15.0875C16.7998 15.3958 16.6734 15.6915 16.4483 15.9095C16.2233 16.1275 15.9181 16.25 15.5998 16.25H8.3998C8.08154 16.25 7.77632 16.1275 7.55128 15.9095C7.32623 15.6915 7.1998 15.3958 7.1998 15.0875C7.1998 14.7792 7.32623 14.4835 7.55128 14.2655C7.77632 14.0475 8.08154 13.925 8.3998 13.925H15.5998ZM18.7998 7.3375C19.1181 7.3375 19.4233 7.45998 19.6483 7.67799C19.8734 7.896 19.9998 8.19169 19.9998 8.5C19.9998 8.80831 19.8734 9.104 19.6483 9.32201C19.4233 9.54002 19.1181 9.6625 18.7998 9.6625H5.1998C4.88155 9.6625 4.57632 9.54002 4.35128 9.32201C4.12623 9.104 3.9998 8.80831 3.9998 8.5C3.9998 8.19169 4.12623 7.896 4.35128 7.67799C4.57632 7.45998 4.88155 7.3375 5.1998 7.3375H18.7998ZM21.9998 0.75C22.3181 0.75 22.6233 0.872477 22.8483 1.09049C23.0734 1.3085 23.1998 1.60419 23.1998 1.9125C23.1998 2.22081 23.0734 2.5165 22.8483 2.73451C22.6233 2.95252 22.3181 3.075 21.9998 3.075H1.9998C1.68154 3.075 1.37632 2.95252 1.15128 2.73451C0.926233 2.5165 0.799805 2.22081 0.799805 1.9125C0.799805 1.60419 0.926233 1.3085 1.15128 1.09049C1.37632 0.872477 1.68154 0.75 1.9998 0.75H21.9998Z" fill="#536079"/>
</svg>
