<svg width="29" height="29" viewBox="0 0 29 29" fill="none" xmlns="http://www.w3.org/2000/svg">
<path d="M14.5 27C21.4036 27 27 21.4036 27 14.5C27 7.59644 21.4036 2 14.5 2C7.59644 2 2 7.59644 2 14.5C2 21.4036 7.59644 27 14.5 27Z" stroke="#536079" stroke-width="2.2" stroke-linecap="round" stroke-linejoin="round"/>
<path d="M10.8623 10.7517C11.1562 9.91627 11.7362 9.21182 12.4997 8.7631C13.2633 8.31439 14.1609 8.15036 15.0338 8.30008C15.9066 8.4498 16.6983 8.90359 17.2687 9.5811C17.839 10.2586 18.1511 11.1161 18.1498 12.0017C18.1498 14.5017 14.3998 15.7517 14.3998 15.7517" stroke="#536079" stroke-width="2.2" stroke-linecap="round" stroke-linejoin="round"/>
<path d="M14.5 20.75H14.5125" stroke="#536079" stroke-width="2.2" stroke-linecap="round" stroke-linejoin="round"/>
</svg>
