<svg width="17" height="16" viewBox="0 0 17 16" fill="none" xmlns="http://www.w3.org/2000/svg">
<path d="M8.6483 3.89525C7.83681 3.89525 7.04354 4.13589 6.36881 4.58673C5.69408 5.03757 5.1682 5.67837 4.85765 6.42808C4.54711 7.1778 4.46586 8.00277 4.62417 8.79867C4.78248 9.59457 5.17325 10.3256 5.74706 10.8995C6.32087 11.4733 7.05195 11.864 7.84785 12.0224C8.64375 12.1807 9.46872 12.0994 10.2184 11.7889C10.9682 11.4783 11.609 10.9524 12.0598 10.2777C12.5106 9.60298 12.7513 8.80971 12.7513 7.99822C12.7521 7.45917 12.6466 6.92524 12.4407 6.42706C12.2348 5.92887 11.9326 5.47622 11.5515 5.09505C11.1703 4.71388 10.7177 4.41169 10.2195 4.2058C9.72128 3.99992 9.18735 3.89438 8.6483 3.89525V3.89525ZM8.6483 10.6655C8.12077 10.6655 7.60508 10.509 7.16645 10.216C6.72782 9.92289 6.38595 9.50632 6.18408 9.01894C5.9822 8.53156 5.92938 7.99526 6.03229 7.47787C6.13521 6.96047 6.38924 6.48521 6.76226 6.11219C7.13529 5.73916 7.61055 5.48513 8.12794 5.38221C8.64534 5.2793 9.18164 5.33212 9.66902 5.534C10.1564 5.73587 10.573 6.07774 10.866 6.51637C11.1591 6.955 11.3156 7.47069 11.3156 7.99822C11.3142 8.70521 11.0328 9.38286 10.5329 9.88278C10.0329 10.3827 9.35529 10.6641 8.6483 10.6655V10.6655ZM13.8762 3.72766C13.8762 3.91688 13.8201 4.10185 13.715 4.25918C13.6098 4.41651 13.4604 4.53915 13.2856 4.61158C13.1108 4.68401 12.9185 4.70299 12.7329 4.66611C12.5473 4.62924 12.3768 4.53816 12.243 4.4044C12.1092 4.27064 12.018 4.1002 11.981 3.91464C11.944 3.72907 11.9629 3.5367 12.0353 3.36186C12.1076 3.18702 12.2302 3.03755 12.3874 2.93236C12.5447 2.82716 12.7296 2.77096 12.9189 2.77086C13.0446 2.77053 13.1692 2.79504 13.2855 2.843C13.4017 2.89096 13.5074 2.96142 13.5963 3.05032C13.6853 3.13923 13.7558 3.24484 13.8038 3.36108C13.8519 3.47731 13.8764 3.6019 13.8762 3.72766V3.72766ZM16.5927 4.70071C16.6188 3.45704 16.1545 2.25304 15.3002 1.34887C14.3942 0.497441 13.1914 0.0336434 11.9483 0.056372C10.6279 -0.0187907 6.66665 -0.0187907 5.34622 0.056372C4.10351 0.0319265 2.90052 0.494529 1.99437 1.34531C1.1415 2.2504 0.677469 3.45379 0.70188 4.69716C0.626717 6.01758 0.626717 9.97886 0.70188 11.2993C0.675774 12.543 1.14005 13.747 1.99437 14.6511C2.90075 15.502 4.10327 15.9657 5.34622 15.9436C6.66665 16.0188 10.6279 16.0188 11.9483 15.9436C13.192 15.9697 14.396 15.5055 15.3002 14.6511C16.1516 13.7451 16.6154 12.5424 16.5927 11.2993C16.6679 9.97886 16.6679 6.02165 16.5927 4.70021V4.70071ZM14.8868 12.7152C14.751 13.0601 14.5456 13.3734 14.2835 13.6355C14.0214 13.8976 13.7082 14.103 13.3632 14.2388C12.3099 14.6567 9.80824 14.5602 8.64627 14.5602C7.4843 14.5602 4.97904 14.6532 3.9293 14.2388C3.58439 14.103 3.27112 13.8976 3.00901 13.6355C2.74689 13.3734 2.54154 13.0601 2.40574 12.7152C1.98777 11.6619 2.08426 9.1602 2.08426 7.99822C2.08426 6.83625 1.99133 4.33099 2.40574 3.28126C2.54154 2.93634 2.74689 2.62307 3.00901 2.36096C3.27112 2.09884 3.58439 1.89349 3.9293 1.75769C4.9826 1.33972 7.4843 1.43622 8.64627 1.43622C9.80824 1.43622 12.3135 1.34328 13.3632 1.75769C13.7082 1.89349 14.0214 2.09884 14.2835 2.36096C14.5456 2.62307 14.751 2.93634 14.8868 3.28126C15.3048 4.33455 15.2083 6.83625 15.2083 7.99822C15.2083 9.1602 15.3043 11.6655 14.8868 12.7152Z" fill="#536079"/>
</svg>
