<svg width="14" height="9" viewBox="0 0 14 9" fill="none" xmlns="http://www.w3.org/2000/svg">
<path d="M9.20046 6.11342C9.64542 6.11342 10.0721 5.94128 10.3868 5.63487C10.7014 5.32846 10.8782 4.91288 10.8782 4.47956C10.8782 4.04623 10.7014 3.63065 10.3868 3.32425C10.0721 3.01784 9.64542 2.8457 9.20046 2.8457C8.90669 2.84415 8.61781 2.919 8.36368 3.06253C7.91896 3.313 7.4143 3.44488 6.90057 3.44488C6.38684 3.44488 5.88218 3.313 5.43747 3.06253C5.1832 2.91892 4.89415 2.84407 4.60022 2.8457C4.3799 2.8457 4.16174 2.88796 3.95819 2.97007C3.75464 3.05218 3.56969 3.17253 3.4139 3.32425C3.25812 3.47596 3.13454 3.65608 3.05022 3.85431C2.96591 4.05254 2.92252 4.265 2.92252 4.47956C2.92252 4.69412 2.96591 4.90658 3.05022 5.10481C3.13454 5.30304 3.25812 5.48315 3.4139 5.63487C3.56969 5.78659 3.75464 5.90694 3.95819 5.98905C4.16174 6.07116 4.3799 6.11342 4.60022 6.11342C4.894 6.11499 5.18288 6.04013 5.43701 5.89658C5.88172 5.64612 6.38638 5.51424 6.90011 5.51424C7.41384 5.51424 7.9185 5.64612 8.36322 5.89658C8.61749 6.04019 8.90653 6.11505 9.20046 6.11342ZM9.20046 8.96001C8.3929 8.9612 7.59937 8.75441 6.90034 8.36059C6.201 8.75357 5.40777 8.96038 4.60036 8.96024C3.79294 8.96009 2.99979 8.75299 2.3006 8.35975C1.60141 7.96651 1.02081 7.40098 0.617149 6.71999C0.213485 6.039 0.000976562 5.26654 0.000976562 4.48023C0.000976562 3.69392 0.213485 2.92146 0.617149 2.24047C1.02081 1.55948 1.60141 0.993951 2.3006 0.600711C2.99979 0.207471 3.79294 0.000371647 4.60036 0.000224658C5.40777 7.76694e-05 6.201 0.206888 6.90034 0.599873C7.51143 0.2564 8.19546 0.0544208 8.89952 0.00955916C9.60358 -0.0353025 10.3088 0.0781554 10.9606 0.341157C11.6125 0.604159 12.1935 1.00966 12.6586 1.52628C13.1238 2.04291 13.4608 2.65683 13.6434 3.32054C13.826 3.98425 13.8494 4.67998 13.7117 5.3539C13.5741 6.02783 13.2791 6.66189 12.8496 7.20705C12.4202 7.75221 11.8677 8.19385 11.2349 8.49781C10.6021 8.80178 9.90603 8.95992 9.20046 8.96001Z" fill="white"/>
</svg>
