<svg width="207" height="50" viewBox="0 0 207 50" fill="none" xmlns="http://www.w3.org/2000/svg">
<path d="M39.7462 32.411C41.6685 32.411 43.512 31.6673 44.8713 30.3436C46.2306 29.0198 46.9942 27.2245 46.9942 25.3524C46.9942 23.4804 46.2306 21.685 44.8713 20.3613C43.512 19.0376 41.6685 18.2939 39.7462 18.2939C38.4771 18.2872 37.2291 18.6106 36.1312 19.2306C34.2099 20.3127 32.0297 20.8824 29.8103 20.8824C27.5909 20.8824 25.4107 20.3127 23.4895 19.2306C22.391 18.6102 21.1423 18.2868 19.8724 18.2939C18.9206 18.2939 17.9781 18.4765 17.0987 18.8312C16.2194 19.1859 15.4204 19.7058 14.7473 20.3613C14.0743 21.0167 13.5404 21.7949 13.1762 22.6512C12.8119 23.5076 12.6245 24.4255 12.6245 25.3524C12.6245 26.2794 12.8119 27.1972 13.1762 28.0536C13.5404 28.91 14.0743 29.6881 14.7473 30.3436C15.4204 30.999 16.2194 31.5189 17.0987 31.8737C17.9781 32.2284 18.9206 32.411 19.8724 32.411C21.1416 32.4178 22.3896 32.0944 23.4875 31.4742C25.4087 30.3921 27.5889 29.8224 29.8083 29.8224C32.0277 29.8224 34.2079 30.3921 36.1292 31.4742C37.2277 32.0946 38.4764 32.418 39.7462 32.411M39.7462 44.7087C36.2574 44.7139 32.8292 43.8205 29.8093 42.1191C26.788 43.8169 23.3612 44.7103 19.873 44.7097C16.3848 44.709 12.9583 43.8143 9.93768 42.1155C6.91706 40.4166 4.40878 37.9734 2.66489 35.0315C0.921002 32.0895 0.00292969 28.7523 0.00292969 25.3553C0.00292969 21.9583 0.921002 18.6212 2.66489 15.6792C4.40878 12.7372 6.91706 10.294 9.93768 8.59517C12.9583 6.89631 16.3848 6.00161 19.873 6.00097C23.3612 6.00034 26.788 6.89379 29.8093 8.59155C32.4493 7.10769 35.4044 6.23511 38.4461 6.0413C41.4878 5.84749 44.5344 6.33764 47.3505 7.47385C50.1665 8.61007 52.6764 10.3619 54.6861 12.5938C56.6958 14.8257 58.1514 17.4779 58.9403 20.3453C59.7292 23.2126 59.8302 26.2183 59.2356 29.1297C58.6411 32.0412 57.3667 34.7805 55.5113 37.1356C53.6558 39.4908 51.269 41.3988 48.5353 42.7119C45.8016 44.0251 42.7944 44.7083 39.7462 44.7087V44.7087Z" fill="white"/>
<path d="M79.689 32.644H87.081V37H74.046V13.834H79.689V32.644ZM98.1546 37.264C96.3506 37.264 94.7226 36.879 93.2706 36.109C91.8406 35.339 90.7076 34.239 89.8716 32.809C89.0576 31.379 88.6506 29.707 88.6506 27.793C88.6506 25.901 89.0686 24.24 89.9046 22.81C90.7406 21.358 91.8846 20.247 93.3366 19.477C94.7886 18.707 96.4166 18.322 98.2206 18.322C100.025 18.322 101.653 18.707 103.105 19.477C104.557 20.247 105.701 21.358 106.537 22.81C107.373 24.24 107.791 25.901 107.791 27.793C107.791 29.685 107.362 31.357 106.504 32.809C105.668 34.239 104.513 35.339 103.039 36.109C101.587 36.879 99.9586 37.264 98.1546 37.264ZM98.1546 32.38C99.2326 32.38 100.146 31.984 100.894 31.192C101.664 30.4 102.049 29.267 102.049 27.793C102.049 26.319 101.675 25.186 100.927 24.394C100.201 23.602 99.2986 23.206 98.2206 23.206C97.1206 23.206 96.2076 23.602 95.4816 24.394C94.7556 25.164 94.3926 26.297 94.3926 27.793C94.3926 29.267 94.7446 30.4 95.4486 31.192C96.1746 31.984 97.0766 32.38 98.1546 32.38ZM119.166 37.264C117.362 37.264 115.734 36.879 114.282 36.109C112.852 35.339 111.719 34.239 110.883 32.809C110.069 31.379 109.662 29.707 109.662 27.793C109.662 25.901 110.08 24.24 110.916 22.81C111.752 21.358 112.896 20.247 114.348 19.477C115.8 18.707 117.428 18.322 119.232 18.322C121.036 18.322 122.664 18.707 124.116 19.477C125.568 20.247 126.712 21.358 127.548 22.81C128.384 24.24 128.802 25.901 128.802 27.793C128.802 29.685 128.373 31.357 127.515 32.809C126.679 34.239 125.524 35.339 124.05 36.109C122.598 36.879 120.97 37.264 119.166 37.264ZM119.166 32.38C120.244 32.38 121.157 31.984 121.905 31.192C122.675 30.4 123.06 29.267 123.06 27.793C123.06 26.319 122.686 25.186 121.938 24.394C121.212 23.602 120.31 23.206 119.232 23.206C118.132 23.206 117.219 23.602 116.493 24.394C115.767 25.164 115.404 26.297 115.404 27.793C115.404 29.267 115.756 30.4 116.46 31.192C117.186 31.984 118.088 32.38 119.166 32.38ZM137.076 32.347H145.062V37H130.773V32.512L138.429 23.239H130.839V18.586H144.897V23.074L137.076 32.347ZM153.81 21.655C154.47 20.643 155.295 19.851 156.285 19.279C157.275 18.685 158.375 18.388 159.585 18.388V24.361H158.034C156.626 24.361 155.57 24.669 154.866 25.285C154.162 25.879 153.81 26.935 153.81 28.453V37H148.167V18.586H153.81V21.655Z" fill="white"/>
<path d="M176.816 22.256C177.221 22.32 177.589 22.4853 177.92 22.752C178.261 23.0187 178.528 23.3493 178.72 23.744C178.923 24.1387 179.024 24.56 179.024 25.008C179.024 25.5733 178.88 26.0853 178.592 26.544C178.304 26.992 177.883 27.3493 177.328 27.616C176.784 27.872 176.139 28 175.392 28H171.232V16.848H175.232C175.989 16.848 176.635 16.976 177.168 17.232C177.701 17.4773 178.101 17.8133 178.368 18.24C178.635 18.6667 178.768 19.1467 178.768 19.68C178.768 20.3413 178.587 20.8907 178.224 21.328C177.872 21.7547 177.403 22.064 176.816 22.256ZM172.688 21.664H175.136C175.819 21.664 176.347 21.504 176.72 21.184C177.093 20.864 177.28 20.4213 177.28 19.856C177.28 19.2907 177.093 18.848 176.72 18.528C176.347 18.208 175.808 18.048 175.104 18.048H172.688V21.664ZM175.264 26.8C175.989 26.8 176.555 26.6293 176.96 26.288C177.365 25.9467 177.568 25.472 177.568 24.864C177.568 24.2453 177.355 23.76 176.928 23.408C176.501 23.0453 175.931 22.864 175.216 22.864H172.688V26.8H175.264ZM189.045 23.28C189.045 23.5573 189.029 23.8507 188.997 24.16H181.989C182.042 25.024 182.335 25.7013 182.869 26.192C183.413 26.672 184.069 26.912 184.837 26.912C185.466 26.912 185.989 26.768 186.405 26.48C186.831 26.1813 187.13 25.7867 187.301 25.296H188.869C188.634 26.1387 188.165 26.8267 187.461 27.36C186.757 27.8827 185.882 28.144 184.837 28.144C184.005 28.144 183.258 27.9573 182.597 27.584C181.946 27.2107 181.434 26.6827 181.061 26C180.687 25.3067 180.501 24.5067 180.501 23.6C180.501 22.6933 180.682 21.8987 181.045 21.216C181.407 20.5333 181.914 20.0107 182.565 19.648C183.226 19.2747 183.983 19.088 184.837 19.088C185.669 19.088 186.405 19.2693 187.045 19.632C187.685 19.9947 188.175 20.496 188.517 21.136C188.869 21.7653 189.045 22.48 189.045 23.28ZM187.541 22.976C187.541 22.4213 187.418 21.9467 187.173 21.552C186.927 21.1467 186.591 20.8427 186.165 20.64C185.749 20.4267 185.285 20.32 184.773 20.32C184.037 20.32 183.407 20.5547 182.885 21.024C182.373 21.4933 182.079 22.144 182.005 22.976H187.541ZM192.742 20.432V25.6C192.742 26.0267 192.833 26.3307 193.014 26.512C193.196 26.6827 193.51 26.768 193.958 26.768H195.03V28H193.718C192.908 28 192.3 27.8133 191.894 27.44C191.489 27.0667 191.286 26.4533 191.286 25.6V20.432H190.15V19.232H191.286V17.024H192.742V19.232H195.03V20.432H192.742ZM196.251 23.584C196.251 22.688 196.432 21.904 196.795 21.232C197.157 20.5493 197.653 20.0213 198.283 19.648C198.923 19.2747 199.632 19.088 200.411 19.088C201.179 19.088 201.845 19.2533 202.411 19.584C202.976 19.9147 203.397 20.3307 203.675 20.832V19.232H205.147V28H203.675V26.368C203.387 26.88 202.955 27.3067 202.379 27.648C201.813 27.9787 201.152 28.144 200.395 28.144C199.616 28.144 198.912 27.952 198.283 27.568C197.653 27.184 197.157 26.6453 196.795 25.952C196.432 25.2587 196.251 24.4693 196.251 23.584ZM203.675 23.6C203.675 22.9387 203.541 22.3627 203.275 21.872C203.008 21.3813 202.645 21.008 202.187 20.752C201.739 20.4853 201.243 20.352 200.699 20.352C200.155 20.352 199.659 20.48 199.211 20.736C198.763 20.992 198.405 21.3653 198.139 21.856C197.872 22.3467 197.739 22.9227 197.739 23.584C197.739 24.256 197.872 24.8427 198.139 25.344C198.405 25.8347 198.763 26.2133 199.211 26.48C199.659 26.736 200.155 26.864 200.699 26.864C201.243 26.864 201.739 26.736 202.187 26.48C202.645 26.2133 203.008 25.8347 203.275 25.344C203.541 24.8427 203.675 24.2613 203.675 23.6Z" fill="#536079"/>
</svg>
