<svg width="31" height="21" viewBox="0 0 31 21" fill="none" xmlns="http://www.w3.org/2000/svg">
<path d="M20.993 14.146C21.9602 14.146 22.8878 13.7618 23.5718 13.0778C24.2557 12.3939 24.64 11.4662 24.64 10.499C24.64 9.53176 24.2557 8.60413 23.5718 7.92018C22.8878 7.23624 21.9602 6.852 20.993 6.852C20.3544 6.84853 19.7264 7.01562 19.174 7.336C18.2072 7.89508 17.1102 8.18945 15.9935 8.18945C14.8767 8.18945 13.7797 7.89508 12.813 7.336C12.2602 7.01545 11.6319 6.84836 10.993 6.852C10.514 6.852 10.0398 6.94633 9.59731 7.12961C9.15484 7.31289 8.7528 7.58153 8.41414 7.92018C8.07548 8.25884 7.80685 8.66088 7.62357 9.10335C7.44029 9.54583 7.34596 10.0201 7.34596 10.499C7.34596 10.9779 7.44029 11.4522 7.62357 11.8946C7.80685 12.3371 8.07548 12.7392 8.41414 13.0778C8.7528 13.4165 9.15484 13.6851 9.59731 13.8684C10.0398 14.0517 10.514 14.146 10.993 14.146C11.6316 14.1495 12.2595 13.9824 12.812 13.662C13.7787 13.1029 14.8757 12.8085 15.9925 12.8085C17.1092 12.8085 18.2062 13.1029 19.173 13.662C19.7257 13.9826 20.354 14.1496 20.993 14.146ZM20.993 20.5C19.2375 20.5027 17.5125 20.0411 15.993 19.162C14.4727 20.0392 12.7484 20.5008 10.9932 20.5005C9.23809 20.5002 7.51394 20.0379 5.99404 19.1601C4.47414 18.2824 3.21203 17.02 2.33455 15.5C1.45707 13.9799 0.995117 12.2557 0.995117 10.5005C0.995117 8.74535 1.45707 7.0211 2.33455 5.50104C3.21203 3.98098 4.47414 2.71864 5.99404 1.84087C7.51394 0.963103 9.23809 0.50083 10.9932 0.500501C12.7484 0.500173 14.4727 0.961803 15.993 1.839C17.3213 1.07232 18.8083 0.621475 20.3388 0.521337C21.8693 0.4212 23.4023 0.674454 24.8192 1.26151C26.2362 1.84857 27.4991 2.75369 28.5104 3.90688C29.5216 5.06007 30.254 6.43041 30.6509 7.91191C31.0479 9.39341 31.0988 10.9464 30.7996 12.4507C30.5004 13.955 29.8592 15.3703 28.9256 16.5871C27.9919 17.804 26.7909 18.7898 25.4154 19.4683C24.0399 20.1468 22.5267 20.4998 20.993 20.5Z" fill="url(#paint0_linear_459_2110)"/>
<defs>
<linearGradient id="paint0_linear_459_2110" x1="28.052" y1="10.5003" x2="22.0488" y2="28.9328" gradientUnits="userSpaceOnUse">
<stop stop-color="#8369F4"/>
<stop offset="1" stop-color="#F039E2"/>
</linearGradient>
</defs>
</svg>
