<svg width="16" height="14" viewBox="0 0 16 14" fill="none" xmlns="http://www.w3.org/2000/svg">
<path fill-rule="evenodd" clip-rule="evenodd" d="M0.503906 6.799C0.503906 6.45486 0.782022 6.17587 1.12511 6.17587H14.3772C14.7202 6.17587 14.9983 6.45486 14.9983 6.799C14.9983 7.14322 14.7202 7.4222 14.3772 7.4222H1.12511C0.782022 7.4222 0.503906 7.14322 0.503906 6.799ZM3.22318 12.6155C3.22318 12.2713 3.50131 11.9923 3.84439 11.9923H14.3775C14.7205 11.9923 14.9987 12.2713 14.9987 12.6155C14.9987 12.9596 14.7205 13.2387 14.3775 13.2387H3.84439C3.50131 13.2387 3.22318 12.9596 3.22318 12.6155ZM7.9351 0.98257C7.9351 0.638388 8.21319 0.359375 8.55624 0.359375H14.3775C14.7205 0.359375 14.9987 0.638388 14.9987 0.98257C14.9987 1.32675 14.7205 1.60576 14.3775 1.60576H8.55624C8.21319 1.60576 7.9351 1.32675 7.9351 0.98257Z" fill="white" stroke="white" stroke-width="0.5"/>
</svg>
