<svg width="30" height="6" viewBox="0 0 30 6" fill="none" xmlns="http://www.w3.org/2000/svg">
<path d="M3.80262 0.00976562C5.45512 0.00976562 6.79762 1.35226 6.79762 2.99976C6.79762 4.64976 5.45512 5.99476 3.80262 5.99476C2.15012 5.99476 0.807617 4.64976 0.807617 2.99976C0.807617 1.35226 2.15012 0.00976562 3.80262 0.00976562ZM15.0004 0.00976562C16.6529 0.00976562 17.9954 1.35226 17.9954 2.99976C17.9954 4.64976 16.6529 5.99476 15.0004 5.99476C13.3479 5.99476 12.0054 4.64976 12.0054 2.99976C12.0054 1.35226 13.3479 0.00976562 15.0004 0.00976562ZM26.1989 0.00976562C27.8514 0.00976562 29.1939 1.35226 29.1939 2.99976C29.1939 4.64976 27.8514 5.99476 26.1989 5.99476C24.5464 5.99476 23.2039 4.64976 23.2039 2.99976C23.2039 1.35226 24.5464 0.00976562 26.1989 0.00976562Z" fill="white"/>
</svg>
