<svg width="21" height="21" viewBox="0 0 21 21" fill="none" xmlns="http://www.w3.org/2000/svg">
<path d="M18.3352 4.58726L18.3359 4.58805C19.4785 5.98568 20.1937 7.67092 20.3989 9.44913C20.604 11.2274 20.2907 13.0261 19.4952 14.6377C18.6997 16.2492 17.4544 17.6078 15.9031 18.5566C14.3518 19.5054 12.5577 20.0058 10.728 19.9998L10.7243 19.9999C10.3555 20.0014 9.98686 19.9827 9.62026 19.9441C8.35313 19.8097 7.12592 19.4307 6.00973 18.829C4.89355 18.2273 3.91058 17.4148 3.11782 16.4388L3.11747 16.4384C1.51064 14.4647 0.771269 11.9475 1.06201 9.44062C1.35275 6.93377 2.64978 4.64254 4.66777 3.07099C6.68576 1.49943 9.25946 0.77629 11.8226 1.06065C14.3857 1.34501 16.7284 2.61356 18.3352 4.58726ZM11.7833 1.56686V1.56684L11.7797 1.56646C11.4292 1.52966 11.0769 1.5124 10.7244 1.51477C8.95076 1.51658 7.21547 2.01977 5.72746 2.96377C4.23902 3.90804 3.06149 5.25308 2.33671 6.83687C1.61193 8.42067 1.37082 10.1756 1.64244 11.8903C1.91405 13.6051 2.6868 15.2065 3.86759 16.5015C5.04838 17.7966 6.58684 18.7301 8.29763 19.1896C10.0085 19.6491 11.8186 19.6151 13.5101 19.0914C15.2015 18.5679 16.7021 17.5771 17.831 16.2385C18.96 14.9 19.6691 13.2708 19.873 11.547C20.0129 10.3722 19.9146 9.18182 19.5837 8.04413C19.2527 6.90631 18.6956 5.84349 17.9442 4.91648C17.1929 3.98946 16.2619 3.21645 15.2048 2.64169C14.1476 2.06692 12.985 1.70168 11.7833 1.56686Z" fill="#FCFCFC" stroke="#536079"/>
<path d="M9.33766 8.47995C9.74876 8.21127 10.2321 8.06787 10.7266 8.06787C11.3896 8.06787 12.0255 8.32548 12.4944 8.784C12.9632 9.2426 13.2266 9.86455 13.2266 10.513C13.2266 10.9966 13.08 11.4693 12.8053 11.8714C12.5306 12.2735 12.1401 12.5869 11.6833 12.772C11.2265 12.957 10.7238 13.0055 10.2389 12.9112C9.75386 12.8168 9.30846 12.5839 8.95876 12.242C8.60916 11.9 8.37106 11.4643 8.2746 10.99C8.17814 10.5157 8.22764 10.0241 8.41686 9.57729C8.60608 9.13052 8.92656 8.74859 9.33766 8.47995ZM9.61546 12.1394C9.94436 12.3544 10.331 12.4691 10.7266 12.4691C11.257 12.4691 11.7657 12.263 12.1408 11.8961C12.5159 11.5293 12.7266 11.0317 12.7266 10.513C12.7266 10.1261 12.6093 9.74796 12.3895 9.42628C12.1698 9.1046 11.8574 8.85383 11.492 8.70575C11.1265 8.55778 10.7244 8.51901 10.3364 8.59445C9.94846 8.66996 9.59206 8.85628 9.31236 9.12984C9.03266 9.4034 8.84216 9.75197 8.76496 10.1314C8.68782 10.5108 8.72746 10.9041 8.87876 11.2616C9.03016 11.619 9.28656 11.9245 9.61546 12.1394Z" fill="#FCFCFC" stroke="#536079"/>
</svg>
