<svg width="23" height="23" viewBox="0 0 23 23" fill="none" xmlns="http://www.w3.org/2000/svg">
<path fill-rule="evenodd" clip-rule="evenodd" d="M11.3392 0.54004C13.3459 0.539106 15.3095 1.12248 16.9903 2.21893C18.671 3.31538 19.9961 4.87747 20.8039 6.71448C21.6116 8.55149 21.867 10.5839 21.5389 12.5637C21.2108 14.5434 20.3134 16.3848 18.9562 17.863L22.2802 21.18C22.4077 21.3333 22.4733 21.5286 22.4644 21.7277C22.4554 21.9269 22.3724 22.1155 22.2316 22.2566C22.0908 22.3978 21.9025 22.4813 21.7034 22.4908C21.5042 22.5003 21.3088 22.4351 21.1552 22.308L17.7912 18.953C16.501 19.9844 14.9826 20.6916 13.3629 21.0154C11.7433 21.3392 10.0696 21.2703 8.48212 20.8143C6.89461 20.3583 5.43946 19.5286 4.23854 18.3947C3.03761 17.2607 2.12587 15.8555 1.57967 14.2967C1.03347 12.7379 0.868713 11.071 1.09919 9.43546C1.32967 7.79993 1.94868 6.24342 2.90438 4.8963C3.86008 3.54918 5.12464 2.45066 6.59217 1.69273C8.0597 0.934805 9.68748 0.539541 11.3392 0.54004ZM11.3392 2.13304C9.60909 2.13284 7.91781 2.6457 6.47922 3.60676C5.04063 4.56782 3.91935 5.9339 3.25719 7.53225C2.59502 9.13059 2.42172 10.8894 2.75919 12.5862C3.09667 14.2831 3.92976 15.8418 5.15311 17.0651C6.37646 18.2885 7.93512 19.1215 9.63196 19.459C11.3288 19.7965 13.0876 19.6232 14.686 18.961C16.2843 18.2989 17.6504 17.1776 18.6115 15.739C19.5725 14.3004 20.0854 12.6091 20.0852 10.879C20.0825 8.56027 19.1602 6.33723 17.5206 4.69761C15.881 3.05799 13.6579 2.13569 11.3392 2.13304Z" fill="#536079"/>
</svg>
