<svg width="19" height="20" viewBox="0 0 19 20" fill="none" xmlns="http://www.w3.org/2000/svg">
<path fill-rule="evenodd" clip-rule="evenodd" d="M9.18156 1.297C10.7697 1.29621 12.3237 1.75784 13.6538 2.62553C14.9839 3.49322 16.0326 4.72943 16.6719 6.18321C17.3111 7.637 17.5132 9.24545 17.2536 10.8122C16.9939 12.3789 16.2836 13.8362 15.2096 15.006L17.8396 17.631C17.9578 17.7492 18.0244 17.9095 18.0244 18.0766C18.0245 18.2438 17.9582 18.4042 17.8401 18.5225C17.7219 18.6408 17.5616 18.7073 17.3944 18.7074C17.2272 18.7075 17.0668 18.6412 16.9486 18.523L14.2866 15.868C13.2656 16.6842 12.0639 17.2439 10.7822 17.5002C9.5004 17.7565 8.17589 17.7019 6.91956 17.3411C5.66323 16.9802 4.51166 16.3236 3.56129 15.4261C2.61091 14.5287 1.88942 13.4166 1.45722 12.183C1.02502 10.9494 0.894704 9.63021 1.07719 8.33588C1.25967 7.04155 1.74964 5.8098 2.50605 4.74377C3.26247 3.67774 4.26331 2.80848 5.42476 2.20879C6.5862 1.6091 7.87443 1.29644 9.18156 1.297ZM9.18156 2.557C7.81235 2.55621 6.47366 2.9615 5.33481 3.72162C4.19597 4.48174 3.30814 5.56253 2.78361 6.82729C2.25909 8.09205 2.12144 9.48396 2.38808 10.827C2.65471 12.17 3.31365 13.4037 4.28155 14.3722C5.24945 15.3406 6.48283 16.0003 7.82567 16.2677C9.16852 16.5351 10.5605 16.3983 11.8256 15.8745C13.0906 15.3507 14.1719 14.4635 14.9327 13.3251C15.6935 12.1867 16.0996 10.8482 16.0996 9.479C16.0977 7.64443 15.3684 5.88547 14.0715 4.58786C12.7747 3.29025 11.0161 2.55991 9.18156 2.557Z" fill="white" stroke="white" stroke-width="0.7"/>
</svg>
