<svg width="13" height="16" viewBox="0 0 13 16" fill="none" xmlns="http://www.w3.org/2000/svg">
<path d="M10.2579 9.80739C9.6438 9.80683 9.04784 10.0153 8.56801 10.3984L5.6687 8.58788C5.75457 8.19947 5.75457 7.797 5.6687 7.4086L8.56801 5.59805C9.06866 5.99546 9.69364 6.20318 10.3326 6.18453C10.9715 6.16588 11.5833 5.92207 12.0599 5.49614C12.5366 5.0702 12.8474 4.48956 12.9374 3.85673C13.0275 3.22389 12.8911 2.57959 12.5522 2.03758C12.2134 1.49557 11.6939 1.09072 11.0856 0.894528C10.4772 0.698334 9.81911 0.723414 9.22745 0.965337C8.63579 1.20726 8.14864 1.65047 7.85203 2.21669C7.55542 2.78292 7.46842 3.43574 7.6064 4.05988L4.7071 5.87043C4.30729 5.55217 3.8258 5.35315 3.31796 5.29627C2.81012 5.23938 2.29654 5.32693 1.83622 5.54885C1.37591 5.77077 0.987547 6.11806 0.715764 6.55081C0.44398 6.98356 0.299805 7.48421 0.299805 7.99522C0.299805 8.50624 0.44398 9.00689 0.715764 9.43964C0.987547 9.87238 1.37591 10.2197 1.83622 10.4416C2.29654 10.6635 2.81012 10.7511 3.31796 10.6942C3.8258 10.6373 4.30729 10.4383 4.7071 10.12L7.6064 11.9306C7.48355 12.4797 7.53425 13.0534 7.75151 13.5724C7.96876 14.0914 8.34185 14.5302 8.81922 14.8281C9.29659 15.1259 9.85468 15.2682 10.4164 15.2352C10.9781 15.2022 11.5157 14.9956 11.9549 14.6439C12.3941 14.2922 12.7133 13.8127 12.8683 13.2718C13.0232 12.7309 13.0064 12.1552 12.8201 11.6243C12.6338 11.0934 12.2873 10.6334 11.8283 10.3079C11.3693 9.98244 10.8205 9.80754 10.2579 9.80739V9.80739Z" fill="#536079"/>
</svg>
