<svg width="25" height="12" viewBox="0 0 25 12" fill="none" xmlns="http://www.w3.org/2000/svg">
<path d="M0.419922 8.92113C0.426146 8.61521 0.450431 8.30991 0.492649 8.00685C0.541518 7.61936 0.607318 7.40464 0.69005 7.3627C0.773166 7.40426 0.845893 7.62937 0.90823 8.03802C0.958986 8.32999 0.990223 8.62501 1.00174 8.92113C0.990633 9.21723 0.95842 9.51215 0.905344 9.80367C0.843007 10.1979 0.77028 10.4166 0.687164 10.4582C0.509003 10.3616 0.419922 9.84926 0.419922 8.92113ZM1.74747 8.92113C1.74747 8.57481 1.78211 8.06207 1.85137 7.3829C1.92063 6.70373 1.96219 6.28142 1.97604 6.11595C1.97364 6.09902 1.9752 6.08176 1.98061 6.06553C1.98603 6.04931 1.99514 6.03457 2.00724 6.02247C2.01933 6.01038 2.03407 6.00126 2.0503 5.99585C2.06652 5.99044 2.08379 5.98887 2.10072 5.99128C2.15574 5.99128 2.1973 6.03284 2.22539 6.11595C2.39163 7.90219 2.47474 8.83725 2.47474 8.92113C2.46365 9.41435 2.42627 9.90663 2.36277 10.3959C2.28581 11.0473 2.24079 11.4562 2.2277 11.6224C2.2 11.7188 2.15844 11.7673 2.10303 11.7673C2.01991 11.7673 1.97835 11.7194 1.97835 11.6224C1.96489 11.4685 1.92333 11.0631 1.85368 10.4063C1.78403 9.74941 1.74921 9.25437 1.74921 8.92113H1.74747ZM3.43058 8.92113C3.43058 8.5879 3.46521 8.07862 3.53448 7.39329C3.60374 6.70797 3.63837 6.33048 3.63837 6.26083C3.63837 6.13616 3.68686 6.07382 3.78382 6.07382C3.89407 6.07382 3.95006 6.13616 3.95006 6.26083C4.10398 7.82657 4.18094 8.71334 4.18094 8.92113C4.18094 9.12892 4.10398 10.0717 3.95006 11.7494C3.95323 11.772 3.95111 11.795 3.94388 11.8166C3.93665 11.8382 3.9245 11.8578 3.90838 11.874C3.89226 11.8901 3.87262 11.9022 3.85101 11.9095C3.82939 11.9167 3.8064 11.9188 3.78382 11.9156C3.68686 11.9156 3.63837 11.8579 3.63837 11.7494C3.63837 11.6528 3.60374 11.2476 3.53448 10.5338C3.46521 9.82002 3.43135 9.28246 3.43289 8.92113H3.43058ZM5.34226 8.92113C5.34226 8.39434 5.35265 7.83639 5.37342 7.24726C5.3942 6.65814 5.42191 5.99994 5.45654 5.27267C5.49156 4.5454 5.5158 3.9809 5.52927 3.57918C5.52927 3.44103 5.5916 3.37177 5.71628 3.37139C5.74451 3.36733 5.7733 3.36991 5.80036 3.37891C5.82742 3.38792 5.85201 3.40311 5.87218 3.42328C5.89234 3.44345 5.90753 3.46804 5.91654 3.4951C5.92555 3.52216 5.92813 3.55095 5.92407 3.57918C5.93754 3.80043 5.97602 4.57272 6.03951 5.89604C6.103 7.21936 6.13417 8.22715 6.13302 8.9194C6.13302 9.27996 6.09838 9.81309 6.02912 10.5188C5.95986 11.2245 5.9258 11.6261 5.92696 11.7234C5.93101 11.7517 5.92844 11.7804 5.91943 11.8075C5.91042 11.8346 5.89523 11.8592 5.87506 11.8793C5.8549 11.8995 5.83031 11.9147 5.80325 11.9237C5.77618 11.9327 5.7474 11.9353 5.71917 11.9312C5.59449 11.9312 5.53215 11.8625 5.53215 11.7234C5.40748 9.89679 5.34495 8.96269 5.34456 8.92113H5.34226ZM7.29549 8.92113C7.29549 8.15885 7.31627 7.05409 7.35783 5.60687C7.39939 4.15964 7.42709 3.26961 7.44094 2.93676C7.46903 2.77052 7.55215 2.68741 7.69029 2.68741C7.82843 2.68741 7.91155 2.77052 7.93964 2.93676C7.95311 3.38043 7.98428 4.30144 8.03315 5.6998C8.08202 7.09815 8.10626 8.17193 8.10587 8.92113C8.10587 9.26745 8.08163 9.76615 8.03315 10.4172C7.98466 11.0683 7.95349 11.4916 7.93964 11.6871C7.91232 11.8533 7.8292 11.9364 7.69029 11.9364C7.55119 11.9364 7.46865 11.8533 7.44094 11.6871C7.44094 11.5351 7.4167 11.1262 7.36822 10.4605C7.31973 9.79482 7.29607 9.28169 7.29722 8.92113H7.29549ZM9.2695 8.92113C9.2695 8.36664 9.27643 7.77771 9.29028 7.15433C9.30413 6.53096 9.32145 5.83832 9.34223 5.07642C9.36301 4.31491 9.38032 3.72617 9.39418 3.3102C9.42131 3.10241 9.51885 2.99852 9.68278 2.99852C9.8467 2.99852 9.94598 3.10241 9.97137 3.3102C9.98484 3.72578 10.0022 4.31452 10.0233 5.07642C10.0445 5.83832 10.0618 6.53096 10.0753 7.15433C10.0887 7.77771 10.0957 8.36664 10.096 8.92113C10.096 8.94845 10.0545 9.85561 9.97137 11.6426V11.6224C9.94328 11.8294 9.84708 11.9331 9.68278 11.9335C9.51847 11.9339 9.42227 11.8377 9.39418 11.6449C9.31222 9.85638 9.27123 8.94845 9.27123 8.92113H9.2695ZM11.2435 8.94133C11.2435 8.89977 11.2851 6.46862 11.3682 1.64788C11.3959 1.39853 11.5067 1.27385 11.7007 1.27385C11.8946 1.27385 12.0054 1.39853 12.0331 1.64788C12.1182 6.46862 12.1607 8.89977 12.1607 8.94133C12.1607 8.9548 12.1191 9.83445 12.036 11.5803C12.0083 11.8152 11.8975 11.9335 11.7035 11.9335C11.5096 11.9335 11.3988 11.8181 11.3711 11.5803C11.2876 9.83483 11.2458 8.95519 11.2458 8.94133H11.2435ZM12.911 4.52578C12.911 3.38293 12.9178 2.3055 12.9312 1.29348C12.9178 1.15533 13.0044 1.03066 13.191 0.919453C13.4003 0.800665 13.6289 0.71977 13.8663 0.680494C14.1291 0.631625 14.3681 0.593145 14.5832 0.565055C14.7517 0.540818 14.9215 0.526939 15.0917 0.523497C15.7491 0.520231 16.4001 0.652294 17.0042 0.911466C17.6084 1.17064 18.1527 1.55137 18.6034 2.02998C19.5943 3.02021 20.1862 4.34044 20.2663 5.73905C20.8003 5.47864 21.4059 5.40367 21.9873 5.52597C22.5687 5.64828 23.0928 5.96088 23.4766 6.41437C24.05 7.04023 24.3623 7.86174 24.3493 8.71045C24.376 9.55943 24.0661 10.3845 23.487 11.006C23.2293 11.3041 22.9102 11.543 22.5515 11.7062C22.1929 11.8695 21.8032 11.9534 21.4091 11.952H13.24C13.1963 11.9505 13.1535 11.9384 13.1155 11.9166C13.0775 11.8949 13.0454 11.8643 13.0219 11.8273C12.9614 11.7502 12.9283 11.6552 12.9278 11.5572C12.9278 10.7957 12.9243 9.71824 12.9174 8.32489C12.9105 6.93153 12.9083 5.66517 12.911 4.52578Z" fill="#536079"/>
</svg>
