<svg width="16" height="16" viewBox="0 0 16 16" fill="none" xmlns="http://www.w3.org/2000/svg">
<path d="M8.34214 1.2533e-08C6.8352 -8.64021e-05 5.36208 0.4467 4.10906 1.28386C2.85605 2.12102 1.87943 3.31094 1.30271 4.70316C0.725987 6.09538 0.575068 7.62735 0.869036 9.10534C1.163 10.5833 1.88866 11.941 2.95423 13.0065C4.0198 14.0721 5.37742 14.7977 6.85541 15.0917C8.3334 15.3857 9.86537 15.2348 11.2576 14.658C12.6498 14.0813 13.8397 13.1047 14.6769 11.8517C15.5141 10.5987 15.9608 9.12555 15.9608 7.61861C15.9599 5.59828 15.157 3.66092 13.7284 2.23233C12.2998 0.803743 10.3625 0.000810577 8.34214 1.2533e-08V1.2533e-08ZM11.4355 11.2101C11.3174 11.2072 11.2029 11.1687 11.107 11.0996C9.18977 9.94434 6.95972 9.89541 4.75676 10.3467C4.63765 10.3849 4.51521 10.4116 4.39106 10.4267C4.32713 10.4273 4.26372 10.4152 4.20454 10.3911C4.14535 10.3669 4.09158 10.3312 4.04638 10.286C4.00118 10.2408 3.96545 10.187 3.94128 10.1278C3.91711 10.0686 3.90499 10.0052 3.90564 9.94129C3.89702 9.81838 3.93534 9.69678 4.01286 9.60102C4.09038 9.50526 4.20133 9.44245 4.32333 9.42528C6.84 8.86908 9.41085 8.91801 11.6025 10.2301C11.6975 10.2746 11.7768 10.3468 11.83 10.4373C11.8832 10.5278 11.9078 10.6322 11.9004 10.7369C11.9017 10.7989 11.8905 10.8605 11.8675 10.918C11.8445 10.9756 11.8103 11.028 11.7667 11.0721C11.7232 11.1162 11.6713 11.1511 11.614 11.1748C11.5568 11.1985 11.4953 11.2105 11.4334 11.2101H11.4355ZM12.2618 9.19502C12.1263 9.18594 11.9958 9.14067 11.8838 9.06395C9.64648 7.8349 7.0225 7.51222 4.55403 8.16258C4.43676 8.20719 4.31351 8.23413 4.18833 8.24253C4.0303 8.24242 3.87878 8.17959 3.76704 8.06785C3.6553 7.95611 3.59248 7.80459 3.59236 7.64657C3.58153 7.50095 3.6238 7.35633 3.71135 7.23946C3.7989 7.1226 3.92581 7.04138 4.06861 7.01085C5.04418 6.72456 6.05666 6.58381 7.07332 6.59315C8.97765 6.5695 10.8541 7.052 12.5108 7.9913C12.621 8.0478 12.7125 8.13502 12.7741 8.24242C12.8358 8.34982 12.865 8.47279 12.8582 8.59644C12.8587 8.67499 12.8436 8.75287 12.8139 8.82558C12.7842 8.89829 12.7404 8.9644 12.685 9.02009C12.6296 9.07577 12.5637 9.11994 12.4911 9.15004C12.4186 9.18014 12.3408 9.19558 12.2622 9.19546L12.2618 9.19502ZM13.2143 6.854C13.0732 6.85455 12.9351 6.81286 12.818 6.73428C10.6307 5.42876 6.71985 5.11548 4.18833 5.82199C4.06058 5.86689 3.9272 5.89381 3.79204 5.90194C3.69695 5.90285 3.60265 5.88462 3.51475 5.84834C3.42685 5.81206 3.34715 5.75848 3.28038 5.69077C3.21361 5.62306 3.16114 5.54262 3.12609 5.45422C3.09104 5.36582 3.07413 5.27128 3.07636 5.17621C3.06868 5.01134 3.11743 4.84876 3.21457 4.71532C3.31172 4.58188 3.45145 4.48553 3.61071 4.44219C4.78581 4.11634 6.00123 3.95908 7.22056 3.97512C9.46328 3.97512 11.8135 4.44219 13.5306 5.44361C13.6577 5.50737 13.7632 5.6073 13.8337 5.73083C13.9042 5.85436 13.9366 5.99598 13.9269 6.13788C13.9274 6.23175 13.9093 6.3248 13.8738 6.41166C13.8382 6.49853 13.7857 6.57749 13.7195 6.64401C13.6533 6.71053 13.5745 6.7633 13.4878 6.79926C13.4011 6.83522 13.3081 6.85368 13.2143 6.85356V6.854Z" fill="#536079"/>
</svg>
