<svg width="20" height="16" viewBox="0 0 20 16" fill="none" xmlns="http://www.w3.org/2000/svg">
<path d="M17.1638 3.79788C17.1758 3.96465 17.1758 4.13143 17.1758 4.29768C17.1758 9.38116 13.3067 15.2381 6.23544 15.2381C4.14181 15.2436 2.09114 14.6442 0.330078 13.5119C0.638463 13.5459 0.948567 13.5617 1.2588 13.5594C2.98949 13.5638 4.67121 12.9851 6.03271 11.9166C5.23017 11.9022 4.45219 11.6374 3.80746 11.1593C3.16273 10.6812 2.68347 10.0136 2.43664 9.24983C2.67681 9.28781 2.91949 9.30767 3.16263 9.30924C3.50416 9.30832 3.84421 9.26437 4.17474 9.17843C3.30403 9.0023 2.52115 8.53016 1.95909 7.84223C1.39704 7.15429 1.09048 6.29299 1.09151 5.40464V5.35721C1.6248 5.65551 2.2211 5.82338 2.83169 5.84711C2.01471 5.30298 1.43637 4.4674 1.21483 3.51113C0.993297 2.55486 1.1453 1.55009 1.63978 0.702134C2.6056 1.89097 3.81052 2.86352 5.17639 3.55674C6.54226 4.24995 8.03858 4.64835 9.56832 4.72608C9.50657 4.43651 9.47461 4.14138 9.47294 3.8453C9.47365 3.07404 9.70606 2.32078 10.14 1.68319C10.574 1.0456 11.1895 0.553103 11.9068 0.269551C12.624 -0.0140013 13.4099 -0.075525 14.1626 0.0929573C14.9152 0.26144 15.5998 0.652156 16.1278 1.21444C16.9889 1.04858 17.8148 0.734328 18.5684 0.28572C18.2816 1.17436 17.6805 1.92783 16.8777 2.40479C17.6414 2.31791 18.3878 2.1173 19.0922 1.80962C18.5658 2.57611 17.9139 3.2483 17.1638 3.79788Z" fill="#536079"/>
</svg>
