<svg width="15" height="19" viewBox="0 0 15 19" fill="none" xmlns="http://www.w3.org/2000/svg">
<path fill-rule="evenodd" clip-rule="evenodd" d="M7.11502 18C3.81502 18 0.999023 17.5 0.999023 15.5C0.999023 13.5 3.79902 11.685 7.11502 11.685C10.415 11.685 13.231 13.485 13.231 15.485C13.231 17.485 10.432 18 7.11502 18Z" stroke="white" stroke-width="2" stroke-linecap="round" stroke-linejoin="round"/>
<path fill-rule="evenodd" clip-rule="evenodd" d="M7.11727 8.84C8.15198 8.83629 9.14295 8.42217 9.87264 7.68855C10.6023 6.95492 11.0111 5.96174 11.0093 4.92702C11.0074 3.8923 10.5951 2.90059 9.86275 2.16959C9.13043 1.43859 8.13799 1.02802 7.10327 1.02802C6.06854 1.02802 5.0761 1.43859 4.34378 2.16959C3.61147 2.90059 3.19913 3.8923 3.19727 4.92702C3.19542 5.96174 3.6042 6.95492 4.33389 7.68855C5.06358 8.42217 6.05455 8.83629 7.08927 8.84H7.11727Z" stroke="white" stroke-width="2" stroke-linecap="round" stroke-linejoin="round"/>
</svg>
