<svg width="32" height="32" viewBox="0 0 32 32" fill="none" xmlns="http://www.w3.org/2000/svg">
<path d="M15.7021 3.05273C18.1863 3.05273 20.6148 3.78939 22.6803 5.16956C24.7459 6.54973 26.3558 8.51141 27.3065 10.8065C28.2572 13.1017 28.5059 15.6272 28.0212 18.0637C27.5366 20.5002 26.3403 22.7382 24.5837 24.4948C22.8271 26.2515 20.589 27.4477 18.1525 27.9324C15.716 28.417 13.1905 28.1683 10.8954 27.2176C8.60027 26.2669 6.63859 24.657 5.25843 22.5915C3.87826 20.5259 3.1416 18.0975 3.1416 15.6132C3.1416 12.282 4.46494 9.08717 6.82049 6.73162C9.17604 4.37607 12.3708 3.05273 15.7021 3.05273V3.05273Z" fill="white"/>
<path d="M31.2206 16.3625C31.2323 15.268 30.9422 14.1915 30.382 13.2511C29.8219 12.3107 29.0135 11.5428 28.0456 11.0318C28.2794 10.3696 28.3987 9.67236 28.3984 8.97007C28.4334 7.43847 27.8587 5.95566 26.8006 4.84774C25.7425 3.73982 24.2877 3.09752 22.7561 3.06208C22.0804 3.05809 21.4101 3.18327 20.7814 3.4309C20.3505 2.44259 19.6406 1.60151 18.7387 1.01081C17.8367 0.420112 16.782 0.105469 15.7038 0.105469C14.6257 0.105469 13.571 0.420112 12.669 1.01081C11.7671 1.60151 11.0572 2.44259 10.6263 3.4309C9.99738 3.18387 9.32725 3.05871 8.65159 3.06208C7.12142 3.09813 5.66802 3.73967 4.61026 4.84596C3.5525 5.95225 2.97676 7.43294 3.00933 8.9632C3.00829 9.66535 3.12682 10.3626 3.35983 11.0249C2.4265 11.5299 1.64234 12.2714 1.08599 13.175C0.529638 14.0786 0.220654 15.1127 0.190023 16.1734C0.159391 17.2341 0.408189 18.2843 0.911466 19.2185C1.41474 20.1527 2.15481 20.9382 3.05744 21.4962C3.02648 21.7486 3.01041 22.0025 3.00933 22.2568C2.97429 23.7886 3.54894 25.2716 4.60697 26.3799C5.66499 27.4882 7.11979 28.131 8.65159 28.167C9.32643 28.1696 9.99565 28.0444 10.624 27.7982C11.0553 28.7864 11.7655 29.6272 12.6676 30.2178C13.5697 30.8083 14.6245 31.1228 15.7027 31.1228C16.7809 31.1228 17.8357 30.8083 18.7378 30.2178C19.6399 29.6272 20.3501 28.7864 20.7814 27.7982C21.4108 28.0432 22.0807 28.1676 22.7561 28.1647C24.2879 28.1287 25.7427 27.4859 26.8007 26.3776C27.8587 25.2693 28.4334 23.7863 28.3984 22.2545C28.398 22.001 28.382 21.7477 28.3502 21.4962C29.2321 20.9621 29.9602 20.2082 30.4633 19.3084C30.9665 18.4085 31.2274 17.3935 31.2206 16.3625V16.3625ZM21.4435 11.4258L15.0292 21.0312C14.9484 21.1525 14.8444 21.2568 14.7233 21.3379C14.6021 21.419 14.4662 21.4755 14.3232 21.504C14.1802 21.5325 14.033 21.5325 13.89 21.5041C13.7469 21.4756 13.611 21.4192 13.4898 21.3381L13.3203 21.1984L9.76263 17.6316C9.65975 17.5287 9.57814 17.4066 9.52246 17.2722C9.46678 17.1377 9.43812 16.9937 9.43812 16.8482C9.43812 16.7027 9.46678 16.5586 9.52246 16.4242C9.57814 16.2897 9.65975 16.1676 9.76263 16.0647C9.86552 15.9618 9.98766 15.8802 10.1221 15.8245C10.2565 15.7688 10.4006 15.7402 10.5461 15.7402C10.6916 15.7402 10.8357 15.7688 10.9701 15.8245C11.1045 15.8802 11.2267 15.9618 11.3295 16.0647L13.9342 18.6762L19.5856 10.2002C19.7487 9.95539 20.0025 9.78537 20.2909 9.72759C20.5794 9.6698 20.879 9.72899 21.1239 9.89212C21.3687 10.0552 21.5388 10.309 21.5965 10.5974C21.6543 10.8859 21.5951 11.1855 21.432 11.4304L21.4435 11.4258Z" fill="url(#paint0_linear_1800_865)"/>
<defs>
<linearGradient id="paint0_linear_1800_865" x1="22.2833" y1="16.8859" x2="13.9118" y2="38.1357" gradientUnits="userSpaceOnUse">
<stop stop-color="#8369F4"/>
<stop offset="1" stop-color="#F039E2"/>
</linearGradient>
</defs>
</svg>
