<svg width="22" height="22" viewBox="0 0 22 22" fill="none" xmlns="http://www.w3.org/2000/svg">
<g id="coin">
<circle id="Ellipse 73" cx="11" cy="11" r="11" fill="white"/>
<g id="logo">
<path id="Path 2" d="M13.6273 13.1509C14.104 13.1509 14.5611 12.9577 14.8982 12.6137C15.2353 12.2698 15.4247 11.8034 15.4247 11.317C15.4247 10.8306 15.2353 10.3642 14.8982 10.0203C14.5611 9.67634 14.104 9.48313 13.6273 9.48313C13.3125 9.48139 13.0031 9.56541 12.7308 9.72651C12.2543 10.0076 11.7137 10.1557 11.1633 10.1557C10.6129 10.1557 10.0723 10.0076 9.59582 9.72651C9.32341 9.56532 9.01375 9.4813 8.69885 9.48313C8.46281 9.48313 8.22908 9.53057 8.01101 9.62273C7.79294 9.71489 7.5948 9.84997 7.42789 10.0203C7.26099 10.1906 7.1286 10.3927 7.03827 10.6152C6.94794 10.8377 6.90145 11.0762 6.90145 11.317C6.90145 11.5578 6.94794 11.7963 7.03827 12.0188C7.1286 12.2413 7.26099 12.4435 7.42789 12.6137C7.5948 12.784 7.79294 12.9191 8.01101 13.0113C8.22908 13.1034 8.46281 13.1509 8.69885 13.1509C9.01358 13.1526 9.32307 13.0686 9.59533 12.9075C10.0718 12.6264 10.6124 12.4783 11.1628 12.4783C11.7132 12.4783 12.2539 12.6264 12.7303 12.9075C13.0027 13.0687 13.3124 13.1527 13.6273 13.1509ZM13.6273 16.346C12.7621 16.3473 11.912 16.1152 11.1631 15.6731C10.4138 16.1142 9.564 16.3464 8.69899 16.3462C7.83397 16.346 6.98424 16.1136 6.23517 15.6722C5.48609 15.2308 4.86408 14.5961 4.43161 13.8317C3.99915 13.0674 3.77148 12.2003 3.77148 11.3178C3.77148 10.4352 3.99915 9.56816 4.43161 8.80381C4.86408 8.03945 5.48609 7.40469 6.23517 6.96331C6.98424 6.52193 7.83397 6.28948 8.69899 6.28931C9.564 6.28915 10.4138 6.52128 11.1631 6.96237C11.8177 6.57685 12.5506 6.35015 13.3049 6.29979C14.0592 6.24944 14.8147 6.37679 15.513 6.67198C16.2114 6.96718 16.8338 7.42232 17.3322 8.00219C17.8305 8.58207 18.1915 9.27113 18.3871 10.0161C18.5828 10.7611 18.6078 11.542 18.4604 12.2984C18.3129 13.0548 17.9969 13.7665 17.5368 14.3784C17.0767 14.9903 16.4848 15.486 15.8068 15.8272C15.1289 16.1684 14.3832 16.3459 13.6273 16.346Z" fill="#0C0F15"/>
</g>
</g>
</svg>
