<svg width="16" height="16" viewBox="0 0 16 16" fill="none" xmlns="http://www.w3.org/2000/svg">
<mask id="mask0_2897_1584" style="mask-type:luminance" maskUnits="userSpaceOnUse" x="0" y="0" width="16" height="16">
<path d="M0 0.00468636H15.8V15.8047H0V0.00468636Z" fill="white"/>
</mask>
<g mask="url(#mask0_2897_1584)">
<path d="M9.00064 2.61513C8.79904 2.74185 8.65368 2.95262 8.60312 3.18488C8.57657 3.29801 8.57847 3.41461 8.5791 3.52995V4.33291C8.83948 4.33354 9.10018 4.33291 9.3612 4.33323C9.45568 4.33259 9.55143 4.33639 9.6456 4.32311C9.82698 4.29973 10.0011 4.22136 10.1376 4.09939C10.294 3.96066 10.3977 3.76569 10.4302 3.55934C10.4599 3.35647 10.4473 3.13906 10.3465 2.95641C10.2251 2.72479 9.99794 2.55541 9.74451 2.49569C9.49424 2.43628 9.21774 2.47483 9.00064 2.61513ZM5.79103 2.60692C5.56509 2.74185 5.39951 2.98043 5.36854 3.24334C5.34958 3.43515 5.36822 3.63487 5.4526 3.81025C5.5673 4.05736 5.79988 4.24475 6.06532 4.3051C6.19962 4.34049 6.33961 4.33196 6.47707 4.33323C6.72702 4.33323 6.97666 4.33291 7.2263 4.33323C7.22694 4.02355 7.22694 3.71387 7.2263 3.40419C7.22599 3.23639 7.18491 3.06733 7.0999 2.92229C6.98014 2.71309 6.77284 2.55762 6.53932 2.49979C6.28873 2.43533 6.01223 2.47167 5.79103 2.60692ZM4.78931 1.6684C5.18937 1.32491 5.7114 1.12804 6.23849 1.11729C6.8509 1.09833 7.46741 1.33628 7.90286 1.7692C8.33072 1.3445 8.93302 1.10687 9.53532 1.11666C10.1338 1.11982 10.7273 1.36535 11.1491 1.79037C11.4958 2.13545 11.7258 2.59807 11.7808 3.08471C11.8266 3.5072 11.7739 3.9436 11.6013 4.33386C12.2968 4.33196 12.992 4.33354 13.6876 4.33291C13.8377 4.33228 13.9881 4.35566 14.13 4.40464C14.5664 4.5519 14.8978 4.94974 14.9863 5.39878C15.0204 5.54983 15.0116 5.70561 15.0125 5.85951C15.0119 6.01277 15.0135 6.16634 15.0119 6.31992C15.0088 6.59484 14.926 6.87165 14.7623 7.09412C14.6239 7.28561 14.4283 7.43413 14.2083 7.52009C14.1685 7.53525 14.1281 7.55358 14.0841 7.55042C9.9537 7.54947 5.82295 7.55105 1.69251 7.54979C1.48711 7.49449 1.30036 7.37504 1.15184 7.22336C0.91926 6.98447 0.796336 6.65077 0.793492 6.31929C0.79286 6.09208 0.79286 5.86519 0.793176 5.63799C0.794756 5.33937 0.890821 5.03822 1.08042 4.80533C1.32026 4.50355 1.70484 4.33512 2.08751 4.33323C2.79251 4.33323 3.49814 4.33228 4.20345 4.33354C4.02364 3.92369 3.97277 3.46328 4.03312 3.02119C4.10802 2.49727 4.3861 2.00936 4.78931 1.6684Z" fill="#536079"/>
</g>
<mask id="mask1_2897_1584" style="mask-type:luminance" maskUnits="userSpaceOnUse" x="0" y="0" width="16" height="16">
<path d="M0 0.00468636H15.8V15.8047H0V0.00468636Z" fill="white"/>
</mask>
<g mask="url(#mask1_2897_1584)">
<path d="M2.07434 13.3752C2.07465 11.885 2.0737 10.3944 2.07465 8.90446C3.79053 8.90636 5.5061 8.90288 7.22166 8.90604C7.22008 10.8355 7.22198 12.765 7.22071 14.6945C6.05214 14.6952 4.88326 14.6945 3.71438 14.6948C3.4837 14.692 3.24859 14.7106 3.02423 14.6468C2.74362 14.5738 2.48893 14.4032 2.31987 14.1668C2.1546 13.939 2.07402 13.6555 2.07434 13.3752Z" fill="#536079"/>
</g>
<mask id="mask2_2897_1584" style="mask-type:luminance" maskUnits="userSpaceOnUse" x="0" y="0" width="16" height="16">
<path d="M0 0.00468636H15.8V15.8047H0V0.00468636Z" fill="white"/>
</mask>
<g mask="url(#mask2_2897_1584)">
<path d="M8.57422 8.907C10.1403 8.90257 11.7064 8.90636 13.2725 8.9051C13.4226 8.90605 13.5727 8.90289 13.7231 8.907C13.7209 10.3909 13.7228 11.8749 13.7222 13.3585C13.7241 13.5983 13.6694 13.8407 13.5509 14.0502C13.4251 14.2758 13.2264 14.4597 12.9916 14.5681C12.7976 14.6595 12.582 14.698 12.3684 14.6952C11.1041 14.6949 9.83948 14.6958 8.57517 14.6945C8.57422 12.7654 8.57675 10.8362 8.57422 8.907Z" fill="#536079"/>
</g>
</svg>
