<svg width="16" height="16" viewBox="0 0 16 16" fill="none" xmlns="http://www.w3.org/2000/svg">
<g id="airdrops">
<g id="Clip path group">
<mask id="mask0_3081_8894" style="mask-type:luminance" maskUnits="userSpaceOnUse" x="0" y="0" width="16" height="16">
<g id="c">
<path id="Vector" d="M0 0.00273323H15.8V15.8027H0V0.00273323Z" fill="white"/>
</g>
</mask>
<g mask="url(#mask0_3081_8894)">
<path id="Vector_2" d="M9.00064 2.61318C8.79904 2.7399 8.65368 2.95067 8.60312 3.18293C8.57657 3.29606 8.57847 3.41266 8.5791 3.528V4.33096C8.83948 4.33159 9.10018 4.33096 9.3612 4.33127C9.45568 4.33064 9.55143 4.33443 9.6456 4.32116C9.82698 4.29778 10.0011 4.21941 10.1376 4.09743C10.294 3.95871 10.3977 3.76374 10.4302 3.55739C10.4599 3.35452 10.4473 3.13711 10.3465 2.95446C10.2251 2.72283 9.99794 2.55346 9.74451 2.49373C9.49424 2.43432 9.21774 2.47288 9.00064 2.61318ZM5.79103 2.60496C5.56509 2.7399 5.39951 2.97848 5.36854 3.24139C5.34958 3.4332 5.36822 3.63291 5.4526 3.80829C5.5673 4.0554 5.79988 4.24279 6.06532 4.30315C6.19962 4.33854 6.33961 4.33001 6.47707 4.33127C6.72702 4.33127 6.97666 4.33096 7.2263 4.33127C7.22694 4.02159 7.22694 3.71191 7.2263 3.40223C7.22599 3.23444 7.18491 3.06538 7.0999 2.92033C6.98014 2.71114 6.77284 2.55567 6.53932 2.49784C6.28873 2.43338 6.01223 2.46972 5.79103 2.60496ZM4.78931 1.66644C5.18937 1.32295 5.7114 1.12608 6.23849 1.11534C6.8509 1.09638 7.46741 1.33433 7.90286 1.76725C8.33072 1.34254 8.93302 1.10491 9.53532 1.11471C10.1338 1.11787 10.7273 1.3634 11.1491 1.78842C11.4958 2.13349 11.7258 2.59612 11.7808 3.08276C11.8266 3.50525 11.7739 3.94165 11.6013 4.33191C12.2968 4.33001 12.992 4.33159 13.6876 4.33096C13.8377 4.33032 13.9881 4.35371 14.13 4.40269C14.5664 4.54995 14.8978 4.94779 14.9863 5.39682C15.0204 5.54787 15.0116 5.70366 15.0125 5.85755C15.0119 6.01081 15.0135 6.16439 15.0119 6.31797C15.0088 6.59289 14.926 6.8697 14.7623 7.09217C14.6239 7.28366 14.4283 7.43218 14.2083 7.51813C14.1685 7.5333 14.1281 7.55163 14.0841 7.54847C9.9537 7.54752 5.82295 7.5491 1.69251 7.54784C1.48711 7.49254 1.30036 7.37309 1.15184 7.22141C0.91926 6.98251 0.796336 6.64882 0.793492 6.31733C0.79286 6.09013 0.79286 5.86324 0.793176 5.63604C0.794756 5.33742 0.890821 5.03627 1.08042 4.80338C1.32026 4.5016 1.70484 4.33317 2.08751 4.33127C2.79251 4.33127 3.49814 4.33032 4.20345 4.33159C4.02364 3.92174 3.97277 3.46133 4.03312 3.01924C4.10802 2.49531 4.3861 2.00741 4.78931 1.66644Z" fill="#536079"/>
</g>
</g>
<g id="Clip path group_2">
<mask id="mask1_3081_8894" style="mask-type:luminance" maskUnits="userSpaceOnUse" x="0" y="0" width="16" height="16">
<g id="b">
<path id="Vector_3" d="M0 0.00273323H15.8V15.8027H0V0.00273323Z" fill="white"/>
</g>
</mask>
<g mask="url(#mask1_3081_8894)">
<path id="Vector_4" d="M2.07434 13.3733C2.07465 11.883 2.0737 10.3924 2.07465 8.90251C3.79053 8.9044 5.5061 8.90093 7.22166 8.90409C7.22008 10.8336 7.22198 12.7631 7.22071 14.6926C6.05214 14.6932 4.88326 14.6926 3.71438 14.6929C3.4837 14.69 3.24859 14.7087 3.02423 14.6449C2.74362 14.5719 2.48893 14.4012 2.31987 14.1649C2.1546 13.937 2.07402 13.6536 2.07434 13.3733Z" fill="#536079"/>
</g>
</g>
<g id="Clip path group_3">
<mask id="mask2_3081_8894" style="mask-type:luminance" maskUnits="userSpaceOnUse" x="0" y="0" width="16" height="16">
<g id="a">
<path id="Vector_5" d="M0 0.00273323H15.8V15.8027H0V0.00273323Z" fill="white"/>
</g>
</mask>
<g mask="url(#mask2_3081_8894)">
<path id="Vector_6" d="M8.57422 8.90309C10.1403 8.89866 11.7064 8.90246 13.2725 8.90119C13.4226 8.90214 13.5727 8.89898 13.7231 8.90309C13.7209 10.387 13.7228 11.871 13.7222 13.3546C13.7241 13.5944 13.6694 13.8368 13.5509 14.0463C13.4251 14.2719 13.2264 14.4558 12.9916 14.5642C12.7976 14.6556 12.582 14.6941 12.3684 14.6913C11.1041 14.6909 9.83948 14.6919 8.57517 14.6906C8.57422 12.7614 8.57675 10.8323 8.57422 8.90309Z" fill="#536079"/>
</g>
</g>
</g>
</svg>
