<svg width="157" height="45" viewBox="0 0 157 45" fill="none" xmlns="http://www.w3.org/2000/svg">
<path d="M92.5624 27.5403L86.9374 21.9153C86.7574 21.7353 86.4874 21.7353 86.3074 21.9153C86.1274 22.0953 86.1274 22.3653 86.3074 22.5453L91.1674 27.4053H66.0574C65.7874 27.4053 65.6074 27.5853 65.6074 27.8553C65.6074 28.1253 65.7874 28.3053 66.0574 28.3053H91.1674L86.3074 33.1653C86.1274 33.3453 86.1274 33.6153 86.3074 33.7953C86.3974 33.8853 86.5324 33.9303 86.6224 33.9303C86.7124 33.9303 86.8474 33.8853 86.9374 33.7953L92.5624 28.1703C92.7424 28.0353 92.7424 27.7203 92.5624 27.5403Z" fill="white"/>
<path d="M70.8719 23.355C71.0069 23.355 71.0969 23.31 71.1869 23.22C71.3669 23.04 71.3669 22.77 71.1869 22.59L66.3269 17.775H91.3469C91.6169 17.775 91.7969 17.595 91.7969 17.325C91.7969 17.055 91.6169 16.875 91.3469 16.875H66.3269L71.1869 12.015C71.3669 11.835 71.3669 11.565 71.1869 11.385C71.0069 11.205 70.7369 11.205 70.5569 11.385L64.9319 16.965C64.7519 17.145 64.7519 17.415 64.9319 17.595L70.5569 23.22C70.6469 23.31 70.7369 23.355 70.8719 23.355Z" fill="white"/>
<path d="M22.5 45C34.9264 45 45 34.9264 45 22.5C45 10.0736 34.9264 0 22.5 0C10.0736 0 0 10.0736 0 22.5C0 34.9264 10.0736 45 22.5 45Z" fill="white"/>
<path d="M8.63809 9.46387L19.3928 23.8437L8.57031 35.5352H11.0062L20.4815 25.2989L28.137 35.5352H36.4259L25.0659 20.3467L35.1395 9.46387H32.7036L23.9776 18.891L16.927 9.46387H8.63809ZM12.2202 11.258H16.0281L32.8434 33.7411H29.0355L12.2202 11.258Z" fill="#0C0F15" stroke="#0C0F15"/>
<path d="M134.246 45C146.672 45 156.746 34.9264 156.746 22.5C156.746 10.0736 146.672 0 134.246 0C121.82 0 111.746 10.0736 111.746 22.5C111.746 34.9264 121.82 45 134.246 45Z" fill="white"/>
<path d="M139.8 26.6014C140.917 26.6014 141.989 26.1691 142.779 25.3997C143.569 24.6303 144.013 23.5867 144.013 22.4986C144.013 21.4105 143.569 20.3669 142.779 19.5975C141.989 18.8281 140.917 18.3958 139.8 18.3958C139.062 18.3919 138.337 18.5799 137.699 18.9403C136.582 19.5693 135.315 19.9004 134.025 19.9004C132.735 19.9004 131.467 19.5693 130.351 18.9403C129.712 18.5797 128.986 18.3917 128.248 18.3958C127.695 18.3958 127.147 18.5019 126.636 18.7081C126.125 18.9143 125.661 19.2165 125.269 19.5975C124.878 19.9785 124.568 20.4308 124.356 20.9285C124.144 21.4263 124.035 21.9598 124.035 22.4986C124.035 23.0374 124.144 23.5709 124.356 24.0687C124.568 24.5664 124.878 25.0187 125.269 25.3997C125.661 25.7807 126.125 26.0829 126.636 26.2891C127.147 26.4952 127.695 26.6014 128.248 26.6014C128.986 26.6053 129.711 26.4173 130.35 26.0569C131.466 25.4279 132.734 25.0968 134.024 25.0968C135.314 25.0968 136.581 25.4279 137.698 26.0569C138.336 26.4175 139.062 26.6055 139.8 26.6014ZM139.8 33.7494C137.772 33.7524 135.779 33.2331 134.024 32.2442C132.268 33.231 130.276 33.7504 128.249 33.75C126.221 33.7496 124.23 33.2296 122.474 32.2421C120.718 31.2547 119.26 29.8346 118.246 28.1245C117.233 26.4145 116.699 24.4748 116.699 22.5003C116.699 20.5258 117.233 18.5861 118.246 16.876C119.26 15.166 120.718 13.7459 122.474 12.7584C124.23 11.771 126.221 11.2509 128.249 11.2506C130.276 11.2502 132.268 11.7695 134.024 12.7563C135.559 11.8938 137.276 11.3867 139.044 11.274C140.812 11.1614 142.583 11.4463 144.22 12.1067C145.857 12.7671 147.316 13.7853 148.484 15.0826C149.652 16.3799 150.498 17.9215 150.957 19.5882C151.415 21.2548 151.474 23.0019 151.128 24.6942C150.783 26.3864 150.042 27.9786 148.963 29.3476C147.885 30.7165 146.498 31.8255 144.909 32.5888C143.32 33.3521 141.572 33.7492 139.8 33.7494Z" fill="#0C0F15"/>
</svg>
