<svg width="47" height="47" viewBox="0 0 47 47" fill="none" xmlns="http://www.w3.org/2000/svg">
<path d="M21.3555 28.5703C22.9987 28.7551 24.6575 28.7551 26.3008 28.5703C26.2891 28.7302 26.2641 28.8889 26.2258 29.0447L26.158 29.3203C25.9457 30.1837 25.2712 30.8557 24.41 31.0617C24.0275 31.1533 23.6288 31.1533 23.2462 31.0617C22.3851 30.8557 21.7105 30.1837 21.4983 29.3203L21.4305 29.0447C21.3922 28.8889 21.3671 28.7302 21.3555 28.5703Z" fill="#536079" fill-opacity="0.12"/>
<path d="M22.303 17.3238C20.6426 17.862 19.3463 19.2125 18.8881 20.9039L18.4001 22.705L18.0137 24.4547C17.8947 24.9936 17.7329 25.5478 17.6475 26.0931C17.6327 26.1876 17.625 26.2846 17.625 26.3833C17.625 27.2648 18.243 28.0243 19.1028 28.1995L19.4068 28.2614C22.3229 28.8554 25.3281 28.8554 28.2442 28.2614L28.5481 28.1995C29.408 28.0243 30.026 27.2648 30.026 26.3833C30.026 26.2846 30.0183 26.1876 30.0035 26.0931C29.9181 25.5478 29.7563 24.9936 29.6372 24.4547L29.2509 22.705L28.7688 20.8673C28.3312 19.1994 27.0827 17.8676 25.4517 17.3289C24.4331 16.9925 23.3234 16.9931 22.303 17.3238Z" fill="#536079" fill-opacity="0.12"/>
<path d="M23.8255 16.248V17.0787M21.3528 28.5692C22.9961 28.7539 24.6548 28.7539 26.2982 28.5692C26.2865 28.729 26.2615 28.8877 26.2232 29.0436L26.1554 29.3192C25.943 30.1826 25.2685 30.8546 24.4074 31.0606C24.0248 31.1521 23.6262 31.1521 23.2436 31.0606C22.3825 30.8546 21.7079 30.1826 21.4956 29.3192L21.4279 29.0436C21.3895 28.8877 21.3644 28.729 21.3528 28.5692ZM18.8881 20.9047C19.3463 19.2133 20.6426 17.8628 22.303 17.3246C23.3234 16.9939 24.4331 16.9933 25.4517 17.3297C27.0827 17.8684 28.3312 19.2002 28.7688 20.8681L29.2509 22.7058L29.6372 24.4554C29.7563 24.9943 29.9182 25.5486 30.0035 26.0939C30.0183 26.1884 30.026 26.2853 30.026 26.3841C30.026 27.2656 29.408 28.0251 28.5481 28.2002L28.2442 28.2622C25.3281 28.8562 22.3229 28.8562 19.4068 28.2622L19.1028 28.2002C18.243 28.0251 17.625 27.2656 17.625 26.3841C17.625 26.2853 17.6327 26.1884 17.6475 26.0939C17.7329 25.5486 17.8947 24.9943 18.0137 24.4554L18.4001 22.7058L18.8881 20.9047Z" stroke="#536079" stroke-width="1.5" stroke-linecap="round"/>
<path d="M46 23.5C46 31.1019 44.0999 36.6989 40.3994 40.3994C36.6989 44.0999 31.1019 46 23.5 46C15.8981 46 10.3011 44.0999 6.60058 40.3994C2.9001 36.6989 1 31.1019 1 23.5C1 15.8981 2.9001 10.3011 6.60058 6.60059C10.3011 2.9001 15.8981 1 23.5 1C31.1019 1 36.6989 2.9001 40.3994 6.60059C44.0999 10.3011 46 15.8981 46 23.5Z" stroke="#141922" stroke-width="2"/>
</svg>
