<svg width="17" height="16" viewBox="0 0 17 16" fill="none" xmlns="http://www.w3.org/2000/svg">
<path d="M8.26513 1.71875C9.52898 1.71875 10.7644 2.09352 11.8153 2.79568C12.8661 3.49784 13.6852 4.49584 14.1688 5.66348C14.6525 6.83113 14.779 8.11597 14.5325 9.35553C14.2859 10.5951 13.6773 11.7337 12.7836 12.6274C11.89 13.5211 10.7513 14.1297 9.51178 14.3762C8.27222 14.6228 6.98738 14.4962 5.81973 14.0126C4.65209 13.5289 3.65409 12.7099 2.95193 11.659C2.24977 10.6082 1.875 9.37273 1.875 8.10888C1.875 6.41411 2.54824 4.78876 3.74663 3.59038C4.94501 2.39199 6.57036 1.71875 8.26513 1.71875V1.71875Z" fill="white"/>
<path d="M16.1596 8.47684C16.1643 7.92157 16.0161 7.37571 15.7313 6.89905C15.4464 6.42238 15.0359 6.03331 14.5446 5.77443C14.6639 5.43649 14.7245 5.08063 14.7239 4.72225C14.7415 3.94314 14.4491 3.1889 13.9108 2.62536C13.3725 2.06182 12.6325 1.73512 11.8534 1.7171C11.5097 1.71446 11.1686 1.7775 10.8485 1.90283C10.6293 1.4 10.268 0.972081 9.80912 0.671549C9.35021 0.371018 8.81357 0.210938 8.26501 0.210938C7.71644 0.210938 7.1798 0.371018 6.72089 0.671549C6.26198 0.972081 5.90074 1.4 5.68147 1.90283C5.36133 1.77778 5.02034 1.71475 4.67665 1.7171C3.89779 1.73561 3.15812 2.06249 2.62008 2.62594C2.08205 3.1894 1.78964 3.94337 1.80709 4.72225C1.80624 5.08057 1.86654 5.4364 1.98539 5.77443C1.5105 6.0312 1.11148 6.40835 0.828366 6.86802C0.545253 7.3277 0.388 7.85375 0.372382 8.39339C0.356765 8.93303 0.483333 9.46729 0.739389 9.94256C0.995444 10.4178 1.37198 10.8174 1.83123 11.1012C1.81561 11.2294 1.80755 11.3584 1.80709 11.4876C1.78914 12.2669 2.08145 13.0215 2.61974 13.5854C3.15803 14.1493 3.89823 14.4763 4.67758 14.4946C5.02093 14.4965 5.36155 14.4335 5.68147 14.3088C5.90092 14.8116 6.26227 15.2395 6.72125 15.5399C7.18023 15.8404 7.71689 16.0004 8.26547 16.0004C8.81405 16.0004 9.35071 15.8404 9.80969 15.5399C10.2687 15.2395 10.63 14.8116 10.8495 14.3088C11.1698 14.4333 11.5107 14.4963 11.8543 14.4946C12.6336 14.4763 13.3738 14.1493 13.9121 13.5854C14.4504 13.0215 14.7427 12.2669 14.7248 11.4876C14.7244 11.3587 14.716 11.23 14.6997 11.1022C15.1491 10.8295 15.52 10.4448 15.776 9.98571C16.0321 9.52665 16.1646 9.00897 16.1605 8.48334L16.1596 8.47684ZM11.1857 5.96945L7.9279 10.8616C7.84475 10.9861 7.71557 11.0725 7.56877 11.1017C7.42197 11.131 7.26956 11.1007 7.14504 11.0177L7.05867 10.9471L5.24314 9.13155C5.14292 9.02479 5.08818 8.88324 5.09049 8.73683C5.0928 8.59043 5.15198 8.45067 5.25552 8.34713C5.35906 8.2436 5.49881 8.18441 5.64522 8.1821C5.79162 8.17979 5.93318 8.23454 6.03993 8.33475L7.37071 9.66274L10.2496 5.34725C10.3334 5.22469 10.4622 5.14011 10.608 5.11184C10.7538 5.08357 10.9049 5.11388 11.0285 5.1962C11.1521 5.27852 11.2383 5.40623 11.2684 5.55166C11.2985 5.69709 11.2701 5.84853 11.1894 5.97316L11.1857 5.96945Z" fill="url(#paint0_linear_2897_1215)"/>
<defs>
<linearGradient id="paint0_linear_2897_1215" x1="11.6132" y1="8.75304" x2="7.35006" y2="19.5688" gradientUnits="userSpaceOnUse">
<stop stop-color="#8369F4"/>
<stop offset="1" stop-color="#F039E2"/>
</linearGradient>
</defs>
</svg>
