<svg width="25" height="26" viewBox="0 0 25 26" fill="none" xmlns="http://www.w3.org/2000/svg">
<mask id="mask0_3052_15085" style="mask-type:luminance" maskUnits="userSpaceOnUse" x="0" y="0" width="25" height="26">
<path d="M0 -0.000411987H24.5V25.7891H0V-0.000411987Z" fill="white"/>
</mask>
<g mask="url(#mask0_3052_15085)">
<path d="M13.9576 4.26217C13.6449 4.469 13.4195 4.81304 13.3411 5.19214C13.3 5.37679 13.3029 5.56712 13.3039 5.75538V7.066C13.7077 7.06704 14.1119 7.066 14.5167 7.06652C14.6632 7.06549 14.8116 7.07168 14.9576 7.05001C15.2389 7.01185 15.5089 6.88393 15.7206 6.68484C15.9631 6.4584 16.1238 6.14016 16.1743 5.80335C16.2204 5.47222 16.2008 5.11735 16.0445 4.81923C15.8563 4.44115 15.504 4.16469 15.111 4.0672C14.7229 3.97024 14.2942 4.03316 13.9576 4.26217ZM8.98063 4.24876C8.63028 4.469 8.37352 4.85843 8.3255 5.28756C8.2961 5.60065 8.32501 5.92663 8.45584 6.21289C8.63371 6.61624 8.99435 6.9221 9.40595 7.02062C9.6142 7.07838 9.83127 7.06446 10.0444 7.06652C10.432 7.06652 10.8191 7.066 11.2062 7.06652C11.2072 6.56105 11.2072 6.05557 11.2062 5.5501C11.2057 5.27622 11.142 5.00027 11.0102 4.76352C10.8245 4.42207 10.5031 4.1683 10.141 4.07391C9.75238 3.96869 9.32363 4.028 8.98063 4.24876ZM7.42733 2.71687C8.04767 2.1562 8.85715 1.83487 9.67447 1.81733C10.6241 1.78638 11.5801 2.17477 12.2553 2.8814C12.9188 2.18818 13.8527 1.80031 14.7866 1.8163C15.7147 1.82146 16.6349 2.22223 17.2891 2.91596C17.8266 3.47921 18.1833 4.23432 18.2686 5.02864C18.3396 5.71825 18.2578 6.43055 17.9903 7.06755C19.0687 7.06446 20.1467 7.06704 21.2252 7.066C21.458 7.06497 21.6912 7.10314 21.9112 7.18309C22.5879 7.42345 23.1019 8.07283 23.2391 8.80576C23.2921 9.05231 23.2783 9.30659 23.2798 9.55778C23.2788 9.80794 23.2813 10.0586 23.2788 10.3093C23.2739 10.758 23.1455 11.2099 22.8917 11.573C22.6771 11.8855 22.3738 12.128 22.0328 12.2683C21.971 12.293 21.9083 12.3229 21.8402 12.3178C15.4354 12.3162 9.03012 12.3188 2.62533 12.3167C2.30683 12.2265 2.01724 12.0315 1.78694 11.7839C1.4263 11.394 1.23569 10.8493 1.23128 10.3083C1.2303 9.9374 1.2303 9.56707 1.23079 9.19622C1.23324 8.70879 1.3822 8.21725 1.6762 7.83711C2.04811 7.34453 2.64444 7.06961 3.23783 7.06652C4.33102 7.06652 5.42519 7.06497 6.51887 7.06704C6.24006 6.39806 6.16117 5.64655 6.25476 4.92496C6.37089 4.06978 6.80209 3.2734 7.42733 2.71687Z" fill="#536079"/>
</g>
<mask id="mask1_3052_15085" style="mask-type:luminance" maskUnits="userSpaceOnUse" x="0" y="0" width="25" height="26">
<path d="M0 -0.000411987H24.5V25.7891H0V-0.000411987Z" fill="white"/>
</mask>
<g mask="url(#mask1_3052_15085)">
<path d="M3.21893 21.8238C3.21942 19.3914 3.21795 16.9584 3.21942 14.5264C5.88012 14.5295 8.54033 14.5238 11.2005 14.529C11.1981 17.6784 11.201 20.8278 11.1991 23.9772C9.38705 23.9783 7.57454 23.9772 5.76203 23.9778C5.40433 23.9731 5.03977 24.0035 4.69187 23.8994C4.25675 23.7802 3.86181 23.5017 3.59966 23.1159C3.34339 22.744 3.21844 22.2813 3.21893 21.8238Z" fill="#536079"/>
</g>
<mask id="mask2_3052_15085" style="mask-type:luminance" maskUnits="userSpaceOnUse" x="0" y="0" width="25" height="26">
<path d="M0 -0.000411987H24.5V25.7891H0V-0.000411987Z" fill="white"/>
</mask>
<g mask="url(#mask2_3052_15085)">
<path d="M13.293 14.5267C15.7214 14.5194 18.1498 14.5256 20.5783 14.5236C20.811 14.5251 21.0438 14.52 21.277 14.5267C21.2736 16.9488 21.2765 19.371 21.2756 21.7926C21.2785 22.1841 21.1937 22.5797 21.01 22.9216C20.815 23.2899 20.5067 23.5901 20.1427 23.767C19.8418 23.9161 19.5076 23.979 19.1764 23.9744C17.2159 23.9739 15.2549 23.9754 13.2944 23.9733C13.293 20.8244 13.2969 17.6756 13.293 14.5267Z" fill="#536079"/>
</g>
</svg>
