<svg width="24" height="23" viewBox="0 0 24 23" fill="none" xmlns="http://www.w3.org/2000/svg">
<path d="M22.8181 2.43431C22.4824 2.09854 21.9787 2.09854 21.6429 2.43431L19.3765 4.70073L18.8729 4.19708L18.3692 3.69343L20.5517 1.42701C20.8875 1.09124 20.8875 0.587591 20.5517 0.251825C20.2159 -0.0839416 19.7123 -0.0839416 19.3765 0.251825L17.0262 2.60219C15.851 1.76277 14.424 1.42701 13.0809 1.67883C11.4021 1.93066 9.97506 2.93796 9.21959 4.36496C8.79988 5.12044 8.21229 5.62409 7.37287 5.95985L4.09915 7.21898C2.08455 8.05839 0.657544 9.73723 0.153895 11.8358C-0.349755 14.1022 0.405719 16.4526 2.08455 18.1314L4.93857 20.9854C6.19769 22.2445 7.96046 23 9.80718 23C10.2269 23 10.7305 22.9161 11.1502 22.8321C13.3327 22.4124 15.0116 20.9854 15.767 18.8869L17.0262 15.6131C17.3619 14.8577 17.8656 14.1861 18.621 13.7664C20.132 12.927 21.0554 11.5839 21.3072 9.90511C21.4751 8.4781 21.1393 7.0511 20.3838 5.95985L22.8181 3.69343C23.1539 3.35766 23.1539 2.77007 22.8181 2.43431ZM9.72324 17.5438C9.55536 17.7117 9.30353 17.7956 9.13565 17.7956C8.96776 17.7956 8.71594 17.7117 8.54805 17.5438L5.44222 14.438C5.10645 14.1022 5.10645 13.5985 5.44222 13.2628C5.77798 12.927 6.28163 12.927 6.6174 13.2628L9.72324 16.3686C10.059 16.7044 10.059 17.208 9.72324 17.5438ZM15.4313 12.1715C14.8437 12.7591 14.0043 13.0949 13.1648 13.0949C12.3254 13.0949 11.486 12.7591 10.8984 12.1715C10.3108 11.5839 9.97506 10.7445 9.97506 9.90511C9.97506 9.06569 10.3108 8.22628 10.8984 7.63869C12.1575 6.37956 14.2561 6.37956 15.5152 7.63869C16.1028 8.22628 16.4386 9.06569 16.4386 9.90511C16.4386 10.7445 16.0189 11.5 15.4313 12.1715Z" fill="#536079"/>
</svg>
