<svg width="23" height="23" viewBox="0 0 23 23" fill="none" xmlns="http://www.w3.org/2000/svg">
<path d="M22.7409 11.2216C23.0863 10.8738 23.0863 10.31 22.7409 9.96231L15.4182 2.59159C14.669 1.83731 14.044 1.20831 13.4813 0.776126C12.8873 0.319957 12.2597 0 11.5 0C10.7403 0 10.1127 0.319957 9.51868 0.776126C8.95593 1.20832 8.33108 1.83731 7.58174 2.5916L0.259097 9.96231C-0.0863658 10.31 -0.0863658 10.8738 0.259097 11.2216C0.604565 11.5693 1.16467 11.5693 1.51014 11.2216L2.01692 10.7115V14.609C2.01692 18.4349 4.63314 21.7575 8.33361 22.6311C10.4163 23.123 12.5837 23.123 14.6664 22.6311C18.3668 21.7575 20.983 18.4349 20.983 14.609V10.7114L21.4898 11.2216C21.8353 11.5693 22.3954 11.5693 22.7409 11.2216Z" fill="white"/>
</svg>
