<svg width="18" height="23" viewBox="0 0 18 23" fill="none" xmlns="http://www.w3.org/2000/svg">
<path d="M8.80625 15.9973C10.1317 15.9973 11.2062 14.9227 11.2062 13.5973C11.2062 12.2718 10.1317 11.1973 8.80625 11.1973C7.48077 11.1973 6.40625 12.2718 6.40625 13.5973C6.40625 14.9227 7.48077 15.9973 8.80625 15.9973Z" fill="#536079"/>
<path d="M16.8 0H0.8C0.32 0 0 0.32 0 0.8V21.6C0 22.08 0.32 22.4 0.8 22.4H16.8C17.28 22.4 17.6 22.08 17.6 21.6V0.8C17.6 0.32 17.28 0 16.8 0ZM8.8 20C5.28 20 2.4 17.12 2.4 13.6C2.4 10.08 5.28 7.2 8.8 7.2C12.32 7.2 15.2 10.08 15.2 13.6C15.2 17.12 12.32 20 8.8 20ZM12.8 7.2C11.44 7.2 10.4 6.16 10.4 4.8C10.4 3.44 11.44 2.4 12.8 2.4C14.16 2.4 15.2 3.44 15.2 4.8C15.2 6.16 14.16 7.2 12.8 7.2Z" fill="#536079"/>
</svg>
