<svg width="23" height="23" viewBox="0 0 23 23" fill="none" xmlns="http://www.w3.org/2000/svg">
<path d="M11.1567 0.234654L8.38415 6.68854H5.61162C5.15145 6.68854 4.70279 6.72306 4.26562 6.81509L5.41605 4.05407L5.46207 3.95053L5.53109 3.76646C5.56561 3.68593 5.58862 3.61691 5.62313 3.55939C6.95762 0.464739 8.45318 -0.501619 11.1567 0.234654Z" fill="#536079"/>
<path d="M18.9667 6.99772L18.9437 6.98621C18.2534 6.79064 17.5517 6.6871 16.8384 6.6871H9.63672L12.2252 0.670374L12.2597 0.589844C12.4207 0.647365 12.5933 0.727895 12.7659 0.785416L15.3083 1.85531C16.7233 2.44203 17.7127 3.05176 18.3224 3.78803C18.426 3.92608 18.518 4.05263 18.61 4.20218C18.7136 4.36324 18.7941 4.5243 18.8401 4.69687C18.8861 4.8004 18.9207 4.89244 18.9437 4.99598C19.1162 5.58269 19.1277 6.24994 18.9667 6.99772Z" fill="#536079"/>
<path d="M11.8242 18.0008H12.1118C12.457 18.0008 12.7446 17.6902 12.7446 17.3105C12.7446 16.8273 12.6065 16.7583 12.3074 16.6433L11.8242 16.4707V18.0008Z" fill="#536079"/>
<path d="M18.4644 8.6422C17.9467 8.49264 17.406 8.41211 16.8423 8.41211H5.61408C4.83179 8.41211 4.09552 8.56167 3.40526 8.86078C1.40352 9.72358 0 11.7138 0 14.0262V16.2695C0 16.5456 0.0230085 16.8102 0.0575213 17.0863C0.310615 20.7447 2.26634 22.7004 5.9247 22.942C6.18929 22.9765 6.45389 22.9995 6.7415 22.9995H15.7148C19.9714 22.9995 22.2148 20.9748 22.4333 16.9483C22.4448 16.7297 22.4563 16.4996 22.4563 16.2695V14.0262C22.4563 11.4837 20.7652 9.34394 18.4644 8.6422ZM12.7007 15.5217C13.2299 15.7058 13.9432 16.0969 13.9432 17.3164C13.9432 18.3633 13.1264 19.2031 12.114 19.2031H11.8264V19.4562C11.8264 19.7898 11.5618 20.0544 11.2282 20.0544C10.8946 20.0544 10.63 19.7898 10.63 19.4562V19.2031H10.5264C9.42201 19.2031 8.51315 18.2713 8.51315 17.1208C8.51315 16.7872 8.77775 16.5226 9.1114 16.5226C9.44502 16.5226 9.70962 16.7872 9.70962 17.1208C9.70962 17.604 10.0778 18.0067 10.5264 18.0067H10.63V16.0624L9.75564 15.7518C9.22644 15.5677 8.51315 15.1766 8.51315 13.9572C8.51315 12.9103 9.32998 12.0705 10.3424 12.0705H10.63V11.8174C10.63 11.4837 10.8946 11.2191 11.2282 11.2191C11.5618 11.2191 11.8264 11.4837 11.8264 11.8174V12.0705H11.9299C13.0344 12.0705 13.9432 13.0023 13.9432 14.1527C13.9432 14.4863 13.6786 14.7509 13.345 14.7509C13.0113 14.7509 12.7467 14.4863 12.7467 14.1527C12.7467 13.6695 12.3786 13.2669 11.9299 13.2669H11.8264V15.2111L12.7007 15.5217Z" fill="#536079"/>
<path d="M9.71484 13.9598C9.71484 14.443 9.8529 14.512 10.152 14.627L10.6352 14.7996V13.2695H10.3476C9.99095 13.2695 9.71484 13.5801 9.71484 13.9598Z" fill="#536079"/>
</svg>
