<svg width="22" height="17" viewBox="0 0 22 17" fill="none" xmlns="http://www.w3.org/2000/svg">
<g clip-path="url(#clip0_641_3447)">
<path d="M3.52338 12.9768C3.65428 12.8459 3.83426 12.7695 4.02515 12.7695H21.336C21.6524 12.7695 21.8105 13.1513 21.5869 13.3749L18.1673 16.7946C18.0364 16.9254 17.8564 17.0018 17.6655 17.0018H0.35463C0.0383006 17.0018 -0.119864 16.62 0.103748 16.3964L3.52338 12.9768Z" fill="url(#paint0_linear_641_3447)"/>
<path d="M3.52338 0.207251C3.65973 0.0763555 3.83971 0 4.02515 0H21.336C21.6524 0 21.8105 0.381777 21.5869 0.60539L18.1673 4.02502C18.0364 4.15592 17.8564 4.23227 17.6655 4.23227H0.35463C0.0383006 4.23227 -0.119864 3.8505 0.103748 3.62688L3.52338 0.207251Z" fill="url(#paint1_linear_641_3447)"/>
<path d="M18.1673 6.551C18.0364 6.42011 17.8564 6.34375 17.6655 6.34375H0.35463C0.0383006 6.34375 -0.119864 6.72553 0.103748 6.94914L3.52338 10.3688C3.65428 10.4997 3.83426 10.576 4.02515 10.576H21.336C21.6524 10.576 21.8105 10.1942 21.5869 9.97063L18.1673 6.551Z" fill="url(#paint2_linear_641_3447)"/>
</g>
<defs>
<linearGradient id="paint0_linear_641_3447" x1="19.6823" y1="-2.04099" x2="7.70182" y2="20.9065" gradientUnits="userSpaceOnUse">
<stop stop-color="#00FFA3"/>
<stop offset="1" stop-color="#DC1FFF"/>
</linearGradient>
<linearGradient id="paint1_linear_641_3447" x1="14.4438" y1="-4.77775" x2="2.46329" y2="18.1697" gradientUnits="userSpaceOnUse">
<stop stop-color="#00FFA3"/>
<stop offset="1" stop-color="#DC1FFF"/>
</linearGradient>
<linearGradient id="paint2_linear_641_3447" x1="17.0464" y1="-3.41819" x2="5.06588" y2="19.5293" gradientUnits="userSpaceOnUse">
<stop stop-color="#00FFA3"/>
<stop offset="1" stop-color="#DC1FFF"/>
</linearGradient>
<clipPath id="clip0_641_3447">
<rect width="21.6904" height="17" fill="white"/>
</clipPath>
</defs>
</svg>
