<svg width="16" height="17" viewBox="0 0 16 17" fill="none" xmlns="http://www.w3.org/2000/svg">
<path d="M12.0877 5.49961C13.2612 5.49961 14.2125 4.49234 14.2125 3.2498C14.2125 2.00727 13.2612 1 12.0877 1C10.9142 1 9.96289 2.00727 9.96289 3.2498C9.96289 4.49234 10.9142 5.49961 12.0877 5.49961Z" stroke="#536079" stroke-width="1.7" stroke-linecap="round" stroke-linejoin="round"/>
<path d="M3.58966 10.7496C4.76316 10.7496 5.71447 9.74234 5.71447 8.4998C5.71447 7.25727 4.76316 6.25 3.58966 6.25C2.41616 6.25 1.46484 7.25727 1.46484 8.4998C1.46484 9.74234 2.41616 10.7496 3.58966 10.7496Z" stroke="#536079" stroke-width="1.7" stroke-linecap="round" stroke-linejoin="round"/>
<path d="M12.0877 15.9996C13.2612 15.9996 14.2125 14.9923 14.2125 13.7498C14.2125 12.5073 13.2612 11.5 12.0877 11.5C10.9142 11.5 9.96289 12.5073 9.96289 13.7498C9.96289 14.9923 10.9142 15.9996 12.0877 15.9996Z" stroke="#536079" stroke-width="1.7" stroke-linecap="round" stroke-linejoin="round"/>
<path d="M5.42188 9.63281L10.2594 12.6176" stroke="#536079" stroke-width="1.7" stroke-linecap="round" stroke-linejoin="round"/>
<path d="M10.2523 4.38672L5.42188 7.37146" stroke="#536079" stroke-width="1.7" stroke-linecap="round" stroke-linejoin="round"/>
</svg>
