<svg width="20" height="21" viewBox="0 0 20 21" fill="none" xmlns="http://www.w3.org/2000/svg">
<path d="M2.00599 10.3903C2.00599 9.77386 2.2 9.15507 2.58802 8.65956C2.66078 8.56235 3.0003 8.16168 3.26707 7.90088L3.41258 7.75863C5.44971 5.59878 10.5183 2.35071 13.089 1.30991C13.089 1.2862 14.6168 0.667406 15.3444 0.646069H15.4414C16.5569 0.646069 17.5998 1.26012 18.1333 2.25588C18.4243 2.80355 18.6911 4.39202 18.7153 4.41336C18.9336 5.83824 19.0791 8.01943 19.0791 10.414C19.0791 12.9247 18.9336 15.2031 18.6668 16.6019C18.6668 16.6256 18.4001 17.9059 18.2303 18.3326C17.9635 18.9467 17.4785 19.4707 16.8722 19.8026C16.3872 20.0373 15.8779 20.1582 15.3444 20.1582C14.7866 20.1321 13.7438 19.7789 13.3315 19.6129C10.6153 18.5697 5.42546 15.1557 3.43683 13.0693C3.09731 12.7374 2.73353 12.332 2.63653 12.2395C2.22425 11.718 2.00599 11.0778 2.00599 10.3903Z" fill="white"/>
<rect x="2.60156" y="20.1582" width="2.60162" height="19.5121" transform="rotate(-180 2.60156 20.1582)" fill="white"/>
</svg>
